<svg width="845" height="853" viewBox="0 0 845 853" fill="none" xmlns="http://www.w3.org/2000/svg">
<path fill-rule="evenodd" clip-rule="evenodd" d="M675.069 485.079C765.142 156.516 240.982 39.4041 173.298 365.185C104.005 698.716 585.595 811.476 675.069 485.079Z" fill="#5FA4D0" fill-opacity="0.37"/>
<path fill-rule="evenodd" clip-rule="evenodd" d="M706.46 546.47C689.942 564.582 631.807 639.521 630.334 661.293L761.293 671.077C757.998 640.74 729.034 565.374 706.46 546.47Z" fill="#5FA4D0" fill-opacity="0.37"/>
<path fill-rule="evenodd" clip-rule="evenodd" d="M629.48 196.941L706.46 304.734C728.724 284.738 755.922 211.036 761.203 180.116C721.588 180.127 660.706 176.591 629.48 196.941Z" fill="#5FA4D0" fill-opacity="0.37"/>
<path fill-rule="evenodd" clip-rule="evenodd" d="M88.2446 189.205C89.2327 209.025 126.139 292.402 145.956 304.093C176.307 245.167 194.137 239.318 223.17 195.702C201.594 186.53 133.544 175.961 107.448 181.738C90.5065 185.49 98.7691 182.588 88.2446 189.205Z" fill="#5FA4D0" fill-opacity="0.37"/>
<path fill-rule="evenodd" clip-rule="evenodd" d="M551.874 816.922C570.878 788.021 581.53 728.908 581.929 686.755C554.053 693.166 544.234 702.503 520.039 710.81C490.889 720.821 482.592 713.306 457.436 725.924C463.977 759.869 518.954 799.161 551.874 816.922Z" fill="#5FA4D0" fill-opacity="0.37"/>
<path fill-rule="evenodd" clip-rule="evenodd" d="M392.426 726.746L261.326 687.254L293.746 818.864C320.582 805.306 388.439 752.732 392.426 726.746Z" fill="#5FA4D0" fill-opacity="0.37"/>
<path fill-rule="evenodd" clip-rule="evenodd" d="M124.008 491.771C120.896 456.204 115.518 393.429 127.65 361.37C90.7819 359.325 38.0768 399.709 10.793 421.715C25.4143 449.646 91.4119 484.438 124.008 491.771Z" fill="#5FA4D0" fill-opacity="0.37"/>
<path fill-rule="evenodd" clip-rule="evenodd" d="M216.501 657.554C219.069 646.451 220.987 656.063 212.642 642.158L180.431 604.845C136.774 547.475 166.801 560.974 136.567 547.733C122.51 569.075 85.177 643.618 88.6128 672.699L216.501 657.554Z" fill="#5FA4D0" fill-opacity="0.37"/>
<path fill-rule="evenodd" clip-rule="evenodd" d="M457.063 125.49C517.563 128.626 529.795 148.439 581.591 164.28C581.764 133.102 570.637 61.0726 551.271 33.8955C520.889 53.4848 466.844 88.2222 457.063 125.49Z" fill="#5FA4D0" fill-opacity="0.37"/>
<path fill-rule="evenodd" clip-rule="evenodd" d="M836.614 422.689C804.334 395.168 759.637 369.526 724.796 354.22C720.376 386.296 729.719 387.928 730.222 421.608C730.687 452.507 723.068 463.214 722.045 494.399C749.763 487.74 820.577 446.424 836.614 422.689Z" fill="#5FA4D0" fill-opacity="0.37"/>
<path fill-rule="evenodd" clip-rule="evenodd" d="M262.662 163.942C313.194 151.545 333.81 126.661 394.708 125.49C386.656 96.5605 326.277 51.0438 299.093 33.9884C298.17 35.307 296.724 35.82 296.408 38.0061L277.049 93.8166C272.735 113.199 266.139 141.099 262.662 163.942Z" fill="#5FA4D0" fill-opacity="0.37"/>
<path fill-rule="evenodd" clip-rule="evenodd" d="M223.101 709.367L122.758 711.027C127.062 752.57 199.16 798.128 241.971 803.114L223.101 709.367Z" fill="#5FA4D0" fill-opacity="0.37"/>
<path fill-rule="evenodd" clip-rule="evenodd" d="M0 486.969C9.94267 518.023 5.82168 549.968 28.568 592.734C46.4565 626.373 28.8227 606.532 54.8224 619.904L88.6474 532.668C66.0423 513.616 28.8021 485.089 0 486.969Z" fill="#5FA4D0" fill-opacity="0.37"/>
<path fill-rule="evenodd" clip-rule="evenodd" d="M0.72998 363.577C23.5795 364.458 70.5216 333.391 87.6114 317.031L52.8946 229.261C17.9679 248.19 5.3777 328.785 0.72998 363.577Z" fill="#5FA4D0" fill-opacity="0.37"/>
<path fill-rule="evenodd" clip-rule="evenodd" d="M609.685 52.9617L633.261 136.893C633.849 138.022 635.23 140.267 636.311 141.888C672.177 141.85 703.293 144.766 729.527 125.411C703.768 96.2062 645.644 42.1997 609.685 52.9617Z" fill="#5FA4D0" fill-opacity="0.37"/>
<path fill-rule="evenodd" clip-rule="evenodd" d="M607.877 800.924C642.941 803.482 724.769 749.041 726.618 711.798L636.318 708.83L607.877 800.924Z" fill="#5FA4D0" fill-opacity="0.37"/>
<path fill-rule="evenodd" clip-rule="evenodd" d="M485.587 0.810638H363.62C355.526 15.0086 360.363 3.24811 358.102 22.2831L417.496 71.3837C449.558 63.5996 489.752 34.4119 485.587 0.810638Z" fill="#5FA4D0" fill-opacity="0.37"/>
<path fill-rule="evenodd" clip-rule="evenodd" d="M355.065 834.821C387.048 859.54 464.854 858.728 497.895 832.36L422.333 773.626L355.065 834.821Z" fill="#5FA4D0" fill-opacity="0.37"/>
<path fill-rule="evenodd" clip-rule="evenodd" d="M118.748 130.175L214.78 143.971L240.449 48.3791C196.953 52.2487 140.42 95.2109 118.748 130.175Z" fill="#5FA4D0" fill-opacity="0.37"/>
<path fill-rule="evenodd" clip-rule="evenodd" d="M761.018 322.402L845 365.478C844.942 327.346 824.956 251.973 796.488 230.36C783.003 253.939 763.727 291.08 761.018 322.402Z" fill="#5FA4D0" fill-opacity="0.37"/>
<path fill-rule="evenodd" clip-rule="evenodd" d="M800.654 618.338C821.992 597.829 846.801 517.685 843.148 482.796L761.692 530.833C765.087 578.735 796.829 613.607 796.829 613.607C797.397 612.344 799.339 616.792 800.654 618.338Z" fill="#5FA4D0" fill-opacity="0.37"/>
</svg>
