<svg width="640" height="374" viewBox="0 0 640 374" fill="none" xmlns="http://www.w3.org/2000/svg">
<circle cx="487.5" cy="229.5" r="79.5" stroke="white" stroke-width="2"/>
<path d="M408.087 1.19155C407.262 0.457232 405.998 0.530858 405.263 1.356L393.297 14.8024C392.563 15.6275 392.636 16.8917 393.461 17.626C394.287 18.3604 395.551 18.2867 396.285 17.4616L406.922 5.50924L418.874 16.146C419.699 16.8803 420.964 16.8067 421.698 15.9816C422.432 15.1564 422.359 13.8922 421.533 13.1579L408.087 1.19155ZM449.094 159.889C415.836 94.6561 410.4 30.8393 408.754 2.56931L404.761 2.80188C406.417 31.2462 411.893 95.7283 445.53 161.706L449.094 159.889Z" fill="white"/>
<path d="M638.319 347.196C591.326 329.773 557.596 299.883 543.026 286.312" stroke="white" stroke-width="4"/>
<line y1="370.8" x2="245.133" y2="370.8" stroke="white" stroke-width="4"/>
<path d="M244.248 370.81C367.858 373.531 373.323 351.339 426.55 280.763" stroke="white" stroke-width="4"/>
<path d="M482.834 217.5H499.5C500.605 217.5 501.665 217.061 502.447 216.28C503.228 215.499 503.667 214.439 503.667 213.334C503.667 212.229 503.228 211.169 502.447 210.387C501.665 209.606 500.605 209.167 499.5 209.167H491.167V205C491.167 203.895 490.728 202.835 489.947 202.054C489.165 201.273 488.105 200.834 487 200.834C485.895 200.834 484.835 201.273 484.054 202.054C483.273 202.835 482.834 203.895 482.834 205V209.167C479.518 209.167 476.339 210.484 473.995 212.828C471.651 215.172 470.334 218.352 470.334 221.667C470.334 224.982 471.651 228.162 473.995 230.506C476.339 232.85 479.518 234.167 482.834 234.167H491.167C492.272 234.167 493.332 234.606 494.113 235.387C494.895 236.169 495.334 237.229 495.334 238.334C495.334 239.439 494.895 240.499 494.113 241.28C493.332 242.061 492.272 242.5 491.167 242.5H474.5C473.395 242.5 472.335 242.939 471.554 243.721C470.773 244.502 470.334 245.562 470.334 246.667C470.334 247.772 470.773 248.832 471.554 249.613C472.335 250.395 473.395 250.834 474.5 250.834H482.834V255C482.834 256.105 483.273 257.165 484.054 257.947C484.835 258.728 485.895 259.167 487 259.167C488.105 259.167 489.165 258.728 489.947 257.947C490.728 257.165 491.167 256.105 491.167 255V250.834C494.482 250.834 497.662 249.517 500.006 247.173C502.35 244.828 503.667 241.649 503.667 238.334C503.667 235.018 502.35 231.839 500.006 229.495C497.662 227.151 494.482 225.834 491.167 225.834H482.834C481.729 225.834 480.669 225.395 479.887 224.613C479.106 223.832 478.667 222.772 478.667 221.667C478.667 220.562 479.106 219.502 479.887 218.721C480.669 217.939 481.729 217.5 482.834 217.5V217.5ZM487 184.167C477.935 184.167 469.074 186.855 461.537 191.891C453.999 196.928 448.125 204.086 444.656 212.461C441.187 220.836 440.279 230.051 442.048 238.942C443.816 247.833 448.181 255.999 454.591 262.409C461.001 268.819 469.168 273.184 478.059 274.953C486.95 276.721 496.165 275.814 504.54 272.345C512.915 268.876 520.073 263.001 525.109 255.464C530.146 247.927 532.834 239.065 532.834 230C532.834 217.845 528.005 206.187 519.409 197.591C510.814 188.996 499.156 184.167 487 184.167V184.167ZM487 267.5C479.584 267.5 472.333 265.301 466.166 261.18C460 257.06 455.193 251.203 452.355 244.351C449.517 237.499 448.774 229.959 450.221 222.684C451.668 215.41 455.239 208.728 460.484 203.484C465.728 198.239 472.41 194.668 479.684 193.221C486.959 191.774 494.499 192.517 501.351 195.355C508.203 198.193 514.06 203 518.18 209.166C522.301 215.333 524.5 222.584 524.5 230C524.5 239.946 520.549 249.484 513.517 256.517C506.484 263.549 496.946 267.5 487 267.5V267.5Z" fill="white"/>
</svg>
