<svg width="270" height="374" viewBox="0 0 270 374" fill="none" xmlns="http://www.w3.org/2000/svg">
<path d="M38.087 1.19155C37.2619 0.457232 35.9977 0.530858 35.2634 1.356L23.297 14.8024C22.5627 15.6275 22.6363 16.8917 23.4614 17.626C24.2866 18.3604 25.5508 18.2867 26.2851 17.4616L36.9219 5.50924L48.8742 16.146C49.6994 16.8803 50.9635 16.8067 51.6979 15.9816C52.4322 15.1564 52.3586 13.8922 51.5334 13.1579L38.087 1.19155ZM79.0939 159.889C45.8357 94.6561 40.4005 30.8393 38.754 2.56931L34.7608 2.80188C36.4174 31.2462 41.8925 95.7283 75.5303 161.706L79.0939 159.889Z" fill="white"/>
<path d="M268.319 347.196C221.326 329.773 187.596 299.883 173.026 286.312" stroke="white" stroke-width="4"/>
</svg>
