<svg width="275" height="371" viewBox="0 0 275 371" fill="none" xmlns="http://www.w3.org/2000/svg">
<path d="M238.579 369.682C239.413 370.407 240.676 370.319 241.401 369.486L253.215 355.905C253.94 355.072 253.852 353.808 253.018 353.084C252.185 352.359 250.922 352.446 250.197 353.28L239.695 365.352L227.624 354.85C226.79 354.125 225.527 354.213 224.802 355.047C224.077 355.88 224.165 357.143 224.999 357.868L238.579 369.682ZM195.783 211.458C229.776 276.311 235.931 340.062 237.897 368.312L241.887 368.034C239.909 339.611 233.707 275.194 199.326 209.601L195.783 211.458Z" fill="white"/>
<path d="M1.14804 26.7635C48.431 43.3827 82.6658 72.6931 97.4647 86.014" stroke="white" stroke-width="4"/>
</svg>
