<svg width="631" height="371" viewBox="0 0 631 371" fill="none" xmlns="http://www.w3.org/2000/svg">
<circle cx="144.5" cy="150.5" r="78.5" stroke="white" stroke-width="4"/>
<path d="M238.579 369.682C239.413 370.407 240.676 370.319 241.401 369.486L253.215 355.905C253.94 355.072 253.852 353.808 253.018 353.084C252.185 352.359 250.922 352.446 250.197 353.28L239.695 365.352L227.624 354.85C226.79 354.125 225.527 354.213 224.802 355.047C224.077 355.88 224.165 357.143 224.999 357.868L238.579 369.682ZM195.783 211.458C229.776 276.311 235.931 340.062 237.897 368.312L241.887 368.034C239.909 339.611 233.707 275.194 199.326 209.601L195.783 211.458Z" fill="white"/>
<path d="M1.14804 26.7635C48.431 43.3827 82.6658 72.6931 97.4647 86.014" stroke="white" stroke-width="4"/>
<line x1="630.929" y1="8.41846" x2="385.793" y2="8.41846" stroke="white" stroke-width="4"/>
<path d="M386.678 8.40763C263.067 5.68699 257.602 27.8788 204.375 98.4551" stroke="white" stroke-width="4"/>
<g clip-path="url(#clip0_207_181)">
<path d="M118.167 169.083C118.167 170.141 119.025 171 120.083 171H137.333V136.5H118.167V169.083ZM190.916 103.507C190.893 103.403 190.893 103.292 190.851 103.192C190.655 102.717 190.279 102.341 189.804 102.146C189.704 102.103 189.597 102.107 189.49 102.08C189.359 102.054 189.229 102 189.083 102H173.75C172.692 102 171.833 102.859 171.833 103.917C171.833 104.975 172.692 105.833 173.75 105.833H184.456L168.56 121.73C167.812 122.478 167.812 123.693 168.56 124.44C168.935 124.812 169.426 125 169.917 125C170.407 125 170.898 124.812 171.27 124.44L187.167 108.543V119.25C187.167 120.308 188.025 121.167 189.083 121.167C190.141 121.167 191 120.308 191 119.25V103.917C191 103.771 190.946 103.641 190.916 103.507ZM130.05 118.1L119.125 132.667H137.525L139.051 117.333H131.583C130.981 117.333 130.41 117.617 130.05 118.1ZM100.917 121.167C101.975 121.167 102.833 120.308 102.833 119.25V108.547L118.726 124.44C119.102 124.812 119.593 125 120.083 125C120.574 125 121.065 124.812 121.437 124.44C122.184 123.693 122.184 122.478 121.437 121.73L105.54 105.833H116.25C117.308 105.833 118.167 104.975 118.167 103.917C118.167 102.859 117.308 102 116.25 102H100.917C100.805 102 100.706 102.046 100.598 102.065C100.461 102.088 100.319 102.092 100.188 102.146C99.9507 102.245 99.7398 102.383 99.5597 102.563C99.5443 102.579 99.5405 102.602 99.5213 102.617C99.368 102.782 99.2338 102.97 99.1457 103.181C99.0498 103.422 99 103.671 99 103.924V119.25C99 120.308 99.8587 121.167 100.917 121.167ZM116.25 190.167H105.543L117.603 178.107C118.351 177.359 118.351 176.144 117.603 175.397C116.856 174.649 115.64 174.649 114.893 175.397L102.833 187.456V176.75C102.833 175.692 101.975 174.833 100.917 174.833C99.8587 174.833 99 175.692 99 176.75V192.079C99 192.332 99.0498 192.585 99.1495 192.819C99.2032 192.946 99.2952 193.042 99.3718 193.153C99.437 193.249 99.4753 193.352 99.5597 193.437C99.6248 193.498 99.7053 193.525 99.7743 193.578C99.9047 193.678 100.031 193.785 100.184 193.847C100.418 193.95 100.668 194 100.917 194H116.25C117.308 194 118.167 193.141 118.167 192.083C118.167 191.025 117.308 190.167 116.25 190.167ZM189.083 174.833C188.025 174.833 187.167 175.692 187.167 176.75V187.46L175.103 175.397C174.356 174.649 173.14 174.649 172.393 175.397C171.646 176.144 171.646 177.359 172.393 178.107L184.453 190.167H173.75C172.692 190.167 171.833 191.025 171.833 192.083C171.833 193.141 172.692 194 173.75 194H189.083C189.332 194 189.582 193.95 189.815 193.851C190.03 193.762 190.214 193.628 190.383 193.475C190.398 193.46 190.421 193.456 190.437 193.44C190.613 193.264 190.755 193.049 190.851 192.815C190.904 192.681 190.912 192.543 190.935 192.401C190.954 192.294 191 192.194 191 192.083V176.75C191 175.692 190.141 174.833 189.083 174.833ZM159.95 118.1C159.586 117.617 159.018 117.333 158.417 117.333H150.949L152.483 132.667H170.875L159.95 118.1ZM171.833 136.5H152.655L152.663 171H169.917C170.975 171 171.833 170.141 171.833 169.083V136.5Z" fill="white"/>
</g>
<defs>
<clipPath id="clip0_207_181">
<rect width="92" height="92" fill="white" transform="translate(99 102)"/>
</clipPath>
</defs>
</svg>
