<svg width="1587" height="780" viewBox="0 0 1587 780" fill="none" xmlns="http://www.w3.org/2000/svg">
<circle cx="1100.5" cy="150.5" r="78.5" stroke="white" stroke-width="4"/>
<circle cx="1100.5" cy="629.5" r="78.5" stroke="white" stroke-width="4"/>
<circle cx="487.5" cy="150.5" r="78.5" stroke="white" stroke-width="4"/>
<circle cx="487.5" cy="629.5" r="79.5" stroke="white" stroke-width="2"/>
<path d="M687.781 12.9094C688.284 11.9257 687.893 10.721 686.909 10.2187L670.878 2.03387C669.894 1.53161 668.69 1.92195 668.187 2.90572C667.685 3.88949 668.075 5.09416 669.059 5.59642L683.309 12.8718L676.034 27.122C675.532 28.1058 675.922 29.3105 676.906 29.8127C677.889 30.315 679.094 29.9247 679.596 28.9409L687.781 12.9094ZM544.325 92.498C599.082 44.057 659.608 22.654 686.616 13.9026L685.384 10.0974C658.212 18.9015 597.055 40.5096 541.675 89.502L544.325 92.498Z" fill="white"/>
<path d="M1194.58 369.682C1195.41 370.407 1196.68 370.319 1197.4 369.486L1209.21 355.905C1209.94 355.072 1209.85 353.808 1209.02 353.084C1208.19 352.359 1206.92 352.446 1206.2 353.28L1195.7 365.352L1183.62 354.85C1182.79 354.125 1181.53 354.213 1180.8 355.047C1180.08 355.88 1180.17 357.143 1181 357.868L1194.58 369.682ZM1151.78 211.458C1185.78 276.311 1191.93 340.062 1193.9 368.312L1197.89 368.034C1195.91 339.611 1189.71 275.194 1155.33 209.601L1151.78 211.458Z" fill="white"/>
<path d="M907.2 768.279C906.674 769.25 907.035 770.464 908.007 770.99L923.836 779.559C924.807 780.085 926.021 779.724 926.547 778.753C927.073 777.781 926.712 776.568 925.74 776.042L911.67 768.424L919.288 754.354C919.813 753.383 919.452 752.169 918.481 751.643C917.51 751.117 916.296 751.478 915.77 752.45L907.2 768.279ZM1052.29 692.025C996.408 739.336 935.531 759.238 908.389 767.314L909.529 771.148C936.839 763.023 998.354 742.929 1054.88 695.078L1052.29 692.025Z" fill="white"/>
<path d="M408.087 401.192C407.262 400.457 405.997 400.531 405.263 401.356L393.297 414.802C392.562 415.628 392.636 416.892 393.461 417.626C394.286 418.36 395.55 418.287 396.285 417.462L406.921 405.509L418.874 416.146C419.699 416.88 420.963 416.807 421.697 415.982C422.432 415.156 422.358 413.892 421.533 413.158L408.087 401.192ZM449.093 559.889C415.835 494.656 410.4 430.839 408.754 402.569L404.76 402.802C406.417 431.246 411.892 495.728 445.53 561.706L449.093 559.889Z" fill="white"/>
<path d="M412.578 327.661C417.005 277.739 436.953 237.326 446.207 219.696" stroke="white" stroke-width="4"/>
<path d="M957.148 26.7635C1004.43 43.3827 1038.67 72.6931 1053.46 86.014" stroke="white" stroke-width="4"/>
<path d="M1189.8 463.351C1183.4 513.06 1161.87 552.654 1151.93 569.905" stroke="white" stroke-width="4"/>
<path d="M638.319 747.196C591.326 729.773 557.596 699.883 543.027 686.312" stroke="white" stroke-width="4"/>
<line x1="1586.93" y1="8.41846" x2="1341.79" y2="8.41846" stroke="white" stroke-width="4"/>
<path d="M1342.68 8.40761C1219.07 5.68696 1213.6 27.8788 1160.37 98.4551" stroke="white" stroke-width="4"/>
<line y1="-2" x2="245.133" y2="-2" transform="matrix(1 0 0 -1 0 6.41846)" stroke="white" stroke-width="4"/>
<path d="M244.249 8.40761C367.858 5.68696 373.323 27.8788 426.55 98.4551" stroke="white" stroke-width="4"/>
<line y1="-2" x2="245.136" y2="-2" transform="matrix(-1 0 0 1 1586.93 772.8)" stroke="white" stroke-width="4"/>
<path d="M1342.68 770.811C1219.07 773.531 1213.6 751.339 1160.37 680.763" stroke="white" stroke-width="4"/>
<line y1="770.8" x2="245.133" y2="770.8" stroke="white" stroke-width="4"/>
<path d="M244.249 770.811C367.858 773.531 373.323 751.339 426.55 680.763" stroke="white" stroke-width="4"/>
<path d="M1142.67 592.333H1059.33C1058.23 592.333 1057.17 592.772 1056.39 593.554C1055.61 594.335 1055.17 595.395 1055.17 596.5V613.167C1055.17 615.746 1055.98 618.259 1057.47 620.363C1058.96 622.467 1061.07 624.057 1063.5 624.917V671.5C1063.5 672.605 1063.94 673.665 1064.72 674.446C1065.5 675.228 1066.56 675.667 1067.67 675.667H1134.33C1135.44 675.667 1136.5 675.228 1137.28 674.446C1138.06 673.665 1138.5 672.605 1138.5 671.5V624.917C1140.93 624.057 1143.04 622.467 1144.53 620.363C1146.02 618.259 1146.83 615.746 1146.83 613.167V596.5C1146.83 595.395 1146.39 594.335 1145.61 593.554C1144.83 592.772 1143.77 592.333 1142.67 592.333ZM1113.5 600.667H1121.83V613.167C1121.83 614.272 1121.39 615.332 1120.61 616.113C1119.83 616.895 1118.77 617.333 1117.67 617.333C1116.56 617.333 1115.5 616.895 1114.72 616.113C1113.94 615.332 1113.5 614.272 1113.5 613.167V600.667ZM1096.83 600.667H1105.17V613.167C1105.17 614.272 1104.73 615.332 1103.95 616.113C1103.16 616.895 1102.11 617.333 1101 617.333C1099.89 617.333 1098.84 616.895 1098.05 616.113C1097.27 615.332 1096.83 614.272 1096.83 613.167V600.667ZM1080.17 600.667H1088.5V613.167C1088.5 614.272 1088.06 615.332 1087.28 616.113C1086.5 616.895 1085.44 617.333 1084.33 617.333C1083.23 617.333 1082.17 616.895 1081.39 616.113C1080.61 615.332 1080.17 614.272 1080.17 613.167V600.667ZM1067.67 617.333C1066.56 617.333 1065.5 616.895 1064.72 616.113C1063.94 615.332 1063.5 614.272 1063.5 613.167V600.667H1071.83V613.167C1071.83 614.272 1071.39 615.332 1070.61 616.113C1069.83 616.895 1068.77 617.333 1067.67 617.333ZM1109.33 667.333H1092.67V650.667C1092.67 648.457 1093.54 646.337 1095.11 644.774C1096.67 643.211 1098.79 642.333 1101 642.333C1103.21 642.333 1105.33 643.211 1106.89 644.774C1108.46 646.337 1109.33 648.457 1109.33 650.667V667.333ZM1130.17 667.333H1117.67V650.667C1117.67 646.247 1115.91 642.007 1112.79 638.882C1109.66 635.756 1105.42 634 1101 634C1096.58 634 1092.34 635.756 1089.21 638.882C1086.09 642.007 1084.33 646.247 1084.33 650.667V667.333H1071.83V624.917C1073.36 624.348 1074.78 623.501 1076 622.417C1078.29 624.467 1081.26 625.6 1084.33 625.6C1087.41 625.6 1090.37 624.467 1092.67 622.417C1094.96 624.467 1097.93 625.6 1101 625.6C1104.07 625.6 1107.04 624.467 1109.33 622.417C1111.63 624.467 1114.59 625.6 1117.67 625.6C1120.74 625.6 1123.71 624.467 1126 622.417C1127.22 623.501 1128.64 624.348 1130.17 624.917V667.333ZM1138.5 613.167C1138.5 614.272 1138.06 615.332 1137.28 616.113C1136.5 616.895 1135.44 617.333 1134.33 617.333C1133.23 617.333 1132.17 616.895 1131.39 616.113C1130.61 615.332 1130.17 614.272 1130.17 613.167V600.667H1138.5V613.167Z" fill="white"/>
<path d="M482.833 617.5H499.5C500.605 617.5 501.665 617.061 502.446 616.279C503.228 615.498 503.667 614.438 503.667 613.333C503.667 612.228 503.228 611.168 502.446 610.387C501.665 609.605 500.605 609.167 499.5 609.167H491.167V605C491.167 603.895 490.728 602.835 489.946 602.054C489.165 601.272 488.105 600.833 487 600.833C485.895 600.833 484.835 601.272 484.054 602.054C483.272 602.835 482.833 603.895 482.833 605V609.167C479.518 609.167 476.339 610.483 473.994 612.828C471.65 615.172 470.333 618.351 470.333 621.667C470.333 624.982 471.65 628.161 473.994 630.505C476.339 632.85 479.518 634.167 482.833 634.167H491.167C492.272 634.167 493.332 634.605 494.113 635.387C494.894 636.168 495.333 637.228 495.333 638.333C495.333 639.438 494.894 640.498 494.113 641.279C493.332 642.061 492.272 642.5 491.167 642.5H474.5C473.395 642.5 472.335 642.939 471.554 643.72C470.772 644.502 470.333 645.561 470.333 646.667C470.333 647.772 470.772 648.831 471.554 649.613C472.335 650.394 473.395 650.833 474.5 650.833H482.833V655C482.833 656.105 483.272 657.165 484.054 657.946C484.835 658.728 485.895 659.167 487 659.167C488.105 659.167 489.165 658.728 489.946 657.946C490.728 657.165 491.167 656.105 491.167 655V650.833C494.482 650.833 497.661 649.516 500.006 647.172C502.35 644.828 503.667 641.648 503.667 638.333C503.667 635.018 502.35 631.839 500.006 629.494C497.661 627.15 494.482 625.833 491.167 625.833H482.833C481.728 625.833 480.668 625.394 479.887 624.613C479.106 623.831 478.667 622.772 478.667 621.667C478.667 620.561 479.106 619.502 479.887 618.72C480.668 617.939 481.728 617.5 482.833 617.5ZM487 584.167C477.935 584.167 469.074 586.855 461.536 591.891C453.999 596.927 448.125 604.085 444.656 612.46C441.187 620.835 440.279 630.051 442.047 638.941C443.816 647.832 448.181 655.999 454.591 662.409C461.001 668.819 469.168 673.184 478.058 674.952C486.949 676.721 496.165 675.813 504.54 672.344C512.915 668.875 520.073 663.001 525.109 655.463C530.145 647.926 532.833 639.065 532.833 630C532.833 617.844 528.004 606.186 519.409 597.591C510.814 588.995 499.156 584.167 487 584.167ZM487 667.5C479.583 667.5 472.333 665.301 466.166 661.18C459.999 657.059 455.193 651.203 452.355 644.35C449.516 637.498 448.774 629.958 450.221 622.684C451.667 615.41 455.239 608.728 460.483 603.483C465.728 598.239 472.41 594.667 479.684 593.22C486.958 591.773 494.498 592.516 501.351 595.354C508.203 598.193 514.06 602.999 518.18 609.166C522.301 615.333 524.5 622.583 524.5 630C524.5 639.945 520.549 649.484 513.517 656.516C506.484 663.549 496.946 667.5 487 667.5Z" fill="white"/>
<g clip-path="url(#clip0_293_169)">
<path d="M1074.17 169.083C1074.17 170.141 1075.03 171 1076.08 171H1093.33V136.5H1074.17V169.083ZM1146.92 103.507C1146.89 103.403 1146.89 103.292 1146.85 103.192C1146.65 102.717 1146.28 102.341 1145.8 102.146C1145.7 102.103 1145.6 102.107 1145.49 102.08C1145.36 102.054 1145.23 102 1145.08 102H1129.75C1128.69 102 1127.83 102.859 1127.83 103.917C1127.83 104.975 1128.69 105.833 1129.75 105.833H1140.46L1124.56 121.73C1123.81 122.478 1123.81 123.693 1124.56 124.44C1124.94 124.812 1125.43 125 1125.92 125C1126.41 125 1126.9 124.812 1127.27 124.44L1143.17 108.543V119.25C1143.17 120.308 1144.03 121.167 1145.08 121.167C1146.14 121.167 1147 120.308 1147 119.25V103.917C1147 103.771 1146.95 103.641 1146.92 103.507ZM1086.05 118.1L1075.12 132.667H1093.53L1095.05 117.333H1087.58C1086.98 117.333 1086.41 117.617 1086.05 118.1ZM1056.92 121.167C1057.97 121.167 1058.83 120.308 1058.83 119.25V108.547L1074.73 124.44C1075.1 124.812 1075.59 125 1076.08 125C1076.57 125 1077.06 124.812 1077.44 124.44C1078.18 123.693 1078.18 122.478 1077.44 121.73L1061.54 105.833H1072.25C1073.31 105.833 1074.17 104.975 1074.17 103.917C1074.17 102.859 1073.31 102 1072.25 102H1056.92C1056.81 102 1056.71 102.046 1056.6 102.065C1056.46 102.088 1056.32 102.092 1056.19 102.146C1055.95 102.245 1055.74 102.383 1055.56 102.563C1055.54 102.579 1055.54 102.602 1055.52 102.617C1055.37 102.782 1055.23 102.97 1055.15 103.181C1055.05 103.422 1055 103.671 1055 103.924V119.25C1055 120.308 1055.86 121.167 1056.92 121.167ZM1072.25 190.167H1061.54L1073.6 178.107C1074.35 177.359 1074.35 176.144 1073.6 175.397C1072.86 174.649 1071.64 174.649 1070.89 175.397L1058.83 187.456V176.75C1058.83 175.692 1057.97 174.833 1056.92 174.833C1055.86 174.833 1055 175.692 1055 176.75V192.079C1055 192.332 1055.05 192.585 1055.15 192.819C1055.2 192.946 1055.3 193.042 1055.37 193.153C1055.44 193.249 1055.48 193.352 1055.56 193.437C1055.62 193.498 1055.71 193.525 1055.77 193.578C1055.9 193.678 1056.03 193.785 1056.18 193.847C1056.42 193.95 1056.67 194 1056.92 194H1072.25C1073.31 194 1074.17 193.141 1074.17 192.083C1074.17 191.025 1073.31 190.167 1072.25 190.167ZM1145.08 174.833C1144.03 174.833 1143.17 175.692 1143.17 176.75V187.46L1131.1 175.397C1130.36 174.649 1129.14 174.649 1128.39 175.397C1127.65 176.144 1127.65 177.359 1128.39 178.107L1140.45 190.167H1129.75C1128.69 190.167 1127.83 191.025 1127.83 192.083C1127.83 193.141 1128.69 194 1129.75 194H1145.08C1145.33 194 1145.58 193.95 1145.82 193.851C1146.03 193.762 1146.21 193.628 1146.38 193.475C1146.4 193.46 1146.42 193.456 1146.44 193.44C1146.61 193.264 1146.75 193.049 1146.85 192.815C1146.9 192.681 1146.91 192.543 1146.93 192.401C1146.95 192.294 1147 192.194 1147 192.083V176.75C1147 175.692 1146.14 174.833 1145.08 174.833ZM1115.95 118.1C1115.59 117.617 1115.02 117.333 1114.42 117.333H1106.95L1108.48 132.667H1126.88L1115.95 118.1ZM1127.83 136.5H1108.66L1108.66 171H1125.92C1126.97 171 1127.83 170.141 1127.83 169.083V136.5Z" fill="white"/>
</g>
<path d="M471.167 144H452.833V155H471.167V144Z" fill="white"/>
<path d="M471.167 166H452.833V177H471.167V166Z" fill="white"/>
<path d="M524.333 155H482.167V134.833C482.167 133.821 481.345 133 480.333 133H443.667C442.655 133 441.833 133.821 441.833 134.833V186.167C441.833 187.179 442.655 188 443.667 188H524.333C525.345 188 526.167 187.179 526.167 186.167V156.833C526.167 155.821 525.345 155 524.333 155ZM474.833 178.833C474.833 179.845 474.012 180.667 473 180.667H451C449.988 180.667 449.167 179.845 449.167 178.833V164.167C449.167 163.155 449.988 162.333 451 162.333H473C474.012 162.333 474.833 163.155 474.833 164.167V178.833ZM474.833 156.833C474.833 157.845 474.012 158.667 473 158.667H451C449.988 158.667 449.167 157.845 449.167 156.833V142.167C449.167 141.155 449.988 140.333 451 140.333H473C474.012 140.333 474.833 141.155 474.833 142.167V156.833ZM496.833 178.833C496.833 179.845 496.012 180.667 495 180.667H480.333C479.321 180.667 478.5 179.845 478.5 178.833V164.167C478.5 163.155 479.321 162.333 480.333 162.333H495C496.012 162.333 496.833 163.155 496.833 164.167V178.833ZM518.833 178.833C518.833 179.845 518.012 180.667 517 180.667H502.333C501.321 180.667 500.5 179.845 500.5 178.833V164.167C500.5 163.155 501.321 162.333 502.333 162.333H517C518.012 162.333 518.833 163.155 518.833 164.167V178.833Z" fill="white"/>
<path d="M493.167 166H482.167V177H493.167V166Z" fill="white"/>
<path d="M515.167 166H504.167V177H515.167V166Z" fill="white"/>
<path d="M462.77 129.333L460.13 116.141C459.958 115.286 459.206 114.667 458.333 114.667H451C450.127 114.667 449.376 115.283 449.203 116.141L446.563 129.333H462.77Z" fill="white"/>
<path d="M525.804 151.333L522.496 101.712C522.43 100.748 521.635 100 520.667 100H509.667C508.699 100 507.903 100.748 507.837 101.712L505.718 133.491L504.159 116.335C504.075 115.393 503.283 114.667 502.333 114.667H491.333C490.384 114.667 489.592 115.389 489.507 116.335L486.325 151.333H525.804Z" fill="white"/>
<defs>
<clipPath id="clip0_293_169">
<rect width="92" height="92" fill="white" transform="translate(1055 102)"/>
</clipPath>
</defs>
</svg>
