<svg width="313" height="327" viewBox="0 0 313 327" fill="none" xmlns="http://www.w3.org/2000/svg">
<path d="M312.781 11.9094C313.284 10.9257 312.893 9.72099 311.909 9.21872L295.878 1.03387C294.894 0.53161 293.69 0.921949 293.187 1.90572C292.685 2.88949 293.075 4.09416 294.059 4.59642L308.309 11.8718L301.034 26.122C300.532 27.1058 300.922 28.3105 301.906 28.8127C302.889 29.315 304.094 28.9247 304.596 27.9409L312.781 11.9094ZM169.325 91.498C224.082 43.057 284.608 21.654 311.616 12.9026L310.384 9.09739C283.212 17.9015 222.055 39.5096 166.675 88.502L169.325 91.498Z" fill="white"/>
<path d="M37.5782 326.661C42.0056 276.739 61.9534 236.326 71.2069 218.696" stroke="white" stroke-width="4"/>
</svg>
