<svg width="688" height="327" viewBox="0 0 688 327" fill="none" xmlns="http://www.w3.org/2000/svg">
<circle cx="487.5" cy="149.5" r="78.5" stroke="white" stroke-width="4"/>
<path d="M687.781 11.9094C688.284 10.9257 687.893 9.72099 686.909 9.21872L670.878 1.03387C669.894 0.53161 668.69 0.921949 668.187 1.90572C667.685 2.88949 668.075 4.09416 669.059 4.59642L683.309 11.8718L676.034 26.122C675.532 27.1058 675.922 28.3105 676.906 28.8127C677.889 29.315 679.094 28.9247 679.596 27.9409L687.781 11.9094ZM544.325 91.498C599.082 43.057 659.608 21.654 686.616 12.9026L685.384 9.09739C658.212 17.9015 597.055 39.5096 541.675 88.502L544.325 91.498Z" fill="white"/>
<path d="M412.578 326.661C417.006 276.739 436.953 236.326 446.207 218.696" stroke="white" stroke-width="4"/>
<line y1="-2" x2="245.133" y2="-2" transform="matrix(1 0 0 -1 0 5.41846)" stroke="white" stroke-width="4"/>
<path d="M244.248 7.40761C367.858 4.68696 373.323 26.8788 426.55 97.4551" stroke="white" stroke-width="4"/>
<path d="M471.166 143H452.833V154H471.166V143Z" fill="white"/>
<path d="M471.166 165H452.833V176H471.166V165Z" fill="white"/>
<path d="M524.333 154H482.166V133.833C482.166 132.821 481.345 132 480.333 132H443.666C442.654 132 441.833 132.821 441.833 133.833V185.167C441.833 186.179 442.654 187 443.666 187H524.333C525.345 187 526.166 186.179 526.166 185.167V155.833C526.166 154.821 525.345 154 524.333 154ZM474.833 177.833C474.833 178.845 474.012 179.667 473 179.667H451C449.988 179.667 449.166 178.845 449.166 177.833V163.167C449.166 162.155 449.988 161.333 451 161.333H473C474.012 161.333 474.833 162.155 474.833 163.167V177.833ZM474.833 155.833C474.833 156.845 474.012 157.667 473 157.667H451C449.988 157.667 449.166 156.845 449.166 155.833V141.167C449.166 140.155 449.988 139.333 451 139.333H473C474.012 139.333 474.833 140.155 474.833 141.167V155.833ZM496.833 177.833C496.833 178.845 496.012 179.667 495 179.667H480.333C479.321 179.667 478.5 178.845 478.5 177.833V163.167C478.5 162.155 479.321 161.333 480.333 161.333H495C496.012 161.333 496.833 162.155 496.833 163.167V177.833ZM518.833 177.833C518.833 178.845 518.012 179.667 517 179.667H502.333C501.321 179.667 500.5 178.845 500.5 177.833V163.167C500.5 162.155 501.321 161.333 502.333 161.333H517C518.012 161.333 518.833 162.155 518.833 163.167V177.833Z" fill="white"/>
<path d="M493.166 165H482.166V176H493.166V165Z" fill="white"/>
<path d="M515.166 165H504.166V176H515.166V165Z" fill="white"/>
<path d="M462.77 128.333L460.13 115.141C459.958 114.286 459.206 113.667 458.333 113.667H451C450.127 113.667 449.376 114.283 449.203 115.141L446.563 128.333H462.77Z" fill="white"/>
<path d="M525.803 150.333L522.496 100.712C522.43 99.748 521.634 99 520.666 99H509.666C508.698 99 507.903 99.748 507.837 100.712L505.717 132.491L504.159 115.335C504.075 114.393 503.283 113.667 502.333 113.667H491.333C490.383 113.667 489.591 114.389 489.507 115.335L486.324 150.333H525.803Z" fill="white"/>
</svg>
