<svg width="394" height="379" viewBox="0 0 394 379" fill="none" xmlns="http://www.w3.org/2000/svg">
<circle cx="196.37" cy="187.153" r="109.755" fill="#76a0cd" fill-opacity="0.92"/>
<circle cx="196.37" cy="187.153" r="85.0096" fill="#76a0cd" fill-opacity="0.92" stroke="white" stroke-width="2"/>
<path d="M281.267 189.32C278.365 124.681 223.752 102.519 198.16 102.519" stroke="white" stroke-width="5"/>
<circle cx="306.368" cy="101.837" r="26.7964" stroke="white" stroke-width="4"/>
<circle cx="306.368" cy="273.184" r="26.7964" stroke="white" stroke-width="4"/>
<circle cx="87.0864" cy="101.837" r="26.7964" stroke="white" stroke-width="4"/>
<circle cx="87.0864" cy="273.184" r="27.7964" stroke="white" stroke-width="2"/>
<path d="M159.875 53.2014C160.377 52.2176 159.987 51.013 159.003 50.5107L142.972 42.3259C141.988 41.8236 140.783 42.2139 140.281 43.1977C139.779 44.1815 140.169 45.3862 141.153 45.8884L155.403 53.1638L148.127 67.414C147.625 68.3978 148.016 69.6025 148.999 70.1047C149.983 70.607 151.188 70.2167 151.69 69.2329L159.875 53.2014ZM108.265 82.0498C127.652 64.8986 149.101 57.3082 158.71 54.1946L157.477 50.3894C147.705 53.5557 125.625 61.3512 105.615 79.0539L108.265 82.0498Z" fill="white"/>
<path d="M339.179 181.211C340.012 181.936 341.275 181.849 342 181.015L353.814 167.435C354.539 166.601 354.451 165.338 353.618 164.613C352.785 163.888 351.521 163.976 350.796 164.809L340.295 176.881L328.223 166.38C327.39 165.655 326.127 165.743 325.402 166.576C324.677 167.409 324.765 168.673 325.598 169.398L339.179 181.211ZM323.575 124.239C335.61 147.2 337.797 169.792 338.496 179.841L342.487 179.564C341.775 169.34 339.541 146.084 327.118 122.382L323.575 124.239Z" fill="white"/>
<path d="M236.092 322.216C235.566 323.188 235.927 324.401 236.898 324.927L252.727 333.497C253.699 334.023 254.912 333.662 255.438 332.691C255.964 331.719 255.603 330.505 254.632 329.98L240.561 322.362L248.179 308.292C248.705 307.32 248.344 306.107 247.372 305.581C246.401 305.055 245.187 305.416 244.661 306.387L236.092 322.216ZM288.294 294.57C268.507 311.321 246.935 318.379 237.28 321.252L238.421 325.086C248.244 322.163 270.454 314.914 290.878 297.623L288.294 294.57Z" fill="white"/>
<path d="M59.5325 190.555C58.7073 189.821 57.4431 189.894 56.7088 190.719L44.7424 204.166C44.0081 204.991 44.0817 206.255 44.9069 206.989C45.732 207.724 46.9962 207.65 47.7305 206.825L58.3673 194.873L70.3197 205.509C71.1448 206.244 72.409 206.17 73.1433 205.345C73.8776 204.52 73.804 203.256 72.9789 202.521L59.5325 190.555ZM74.4918 247.7C62.7167 224.604 60.7852 201.989 60.1995 191.933L56.2062 192.165C56.8021 202.396 58.7735 225.676 70.9283 249.517L74.4918 247.7Z" fill="white"/>
<path d="M60.2851 165.211C61.8688 147.353 69.0045 132.896 72.3147 126.59" stroke="white" stroke-width="4"/>
<path d="M255.088 57.5738C272.002 63.5188 284.249 74.0037 289.543 78.7689" stroke="white" stroke-width="4"/>
<path d="M338.311 213.749C336.023 231.531 328.322 245.694 324.766 251.865" stroke="white" stroke-width="4"/>
<path d="M141.037 315.287C124.227 309.054 112.161 298.362 106.949 293.507" stroke="white" stroke-width="4"/>
<path d="M393 51.0081C348.782 50.0348 346.827 57.9733 327.787 83.2198" stroke="white" stroke-width="4"/>
<path d="M0.0702035 51.0081C44.2876 50.0348 46.2428 57.9733 65.283 83.2198" stroke="white" stroke-width="4"/>
<path d="M393 323.734C348.782 324.707 346.827 316.769 327.787 291.522" stroke="white" stroke-width="4"/>
<path d="M0.0704476 323.734C44.2879 324.707 46.243 316.769 65.2832 291.522" stroke="white" stroke-width="4"/>
<path d="M321.452 259.891H291.642C291.247 259.891 290.868 260.048 290.588 260.327C290.309 260.607 290.152 260.986 290.152 261.381V267.343C290.154 268.266 290.442 269.165 290.976 269.917C291.509 270.67 292.263 271.239 293.133 271.546V288.21C293.133 288.605 293.29 288.984 293.569 289.264C293.849 289.544 294.228 289.701 294.623 289.701H318.471C318.866 289.701 319.245 289.544 319.525 289.264C319.805 288.984 319.962 288.605 319.962 288.21V271.546C320.831 271.239 321.585 270.67 322.118 269.917C322.652 269.165 322.94 268.266 322.943 267.343V261.381C322.943 260.986 322.786 260.607 322.506 260.327C322.226 260.048 321.847 259.891 321.452 259.891ZM311.019 262.872H314V267.343C314 267.738 313.843 268.118 313.563 268.397C313.283 268.677 312.904 268.834 312.509 268.834C312.114 268.834 311.735 268.677 311.455 268.397C311.176 268.118 311.019 267.738 311.019 267.343V262.872ZM305.057 262.872H308.038V267.343C308.038 267.738 307.881 268.118 307.601 268.397C307.321 268.677 306.942 268.834 306.547 268.834C306.152 268.834 305.773 268.677 305.493 268.397C305.214 268.118 305.057 267.738 305.057 267.343V262.872ZM299.095 262.872H302.076V267.343C302.076 267.738 301.919 268.118 301.639 268.397C301.36 268.677 300.98 268.834 300.585 268.834C300.19 268.834 299.811 268.677 299.531 268.397C299.252 268.118 299.095 267.738 299.095 267.343V262.872ZM294.623 268.834C294.228 268.834 293.849 268.677 293.569 268.397C293.29 268.118 293.133 267.738 293.133 267.343V262.872H296.114V267.343C296.114 267.738 295.957 268.118 295.677 268.397C295.398 268.677 295.018 268.834 294.623 268.834ZM309.528 286.72H303.566V280.758C303.566 279.967 303.88 279.209 304.439 278.65C304.998 278.091 305.756 277.777 306.547 277.777C307.338 277.777 308.096 278.091 308.655 278.65C309.214 279.209 309.528 279.967 309.528 280.758V286.72ZM316.981 286.72H312.509V280.758C312.509 279.176 311.881 277.66 310.763 276.542C309.645 275.424 308.128 274.796 306.547 274.796C304.966 274.796 303.449 275.424 302.331 276.542C301.213 277.66 300.585 279.176 300.585 280.758V286.72H296.114V271.546C296.661 271.343 297.167 271.04 297.604 270.652C298.424 271.385 299.485 271.791 300.585 271.791C301.685 271.791 302.746 271.385 303.566 270.652C304.386 271.385 305.447 271.791 306.547 271.791C307.647 271.791 308.708 271.385 309.528 270.652C310.348 271.385 311.409 271.791 312.509 271.791C313.609 271.791 314.67 271.385 315.49 270.652C315.927 271.04 316.433 271.343 316.981 271.546V286.72ZM319.962 267.343C319.962 267.738 319.805 268.118 319.525 268.397C319.245 268.677 318.866 268.834 318.471 268.834C318.076 268.834 317.697 268.677 317.417 268.397C317.138 268.118 316.981 267.738 316.981 267.343V262.872H319.962V267.343Z" fill="white"/>
<path d="M85.4172 268.892H91.3792C91.7745 268.892 92.1536 268.735 92.4331 268.455C92.7126 268.176 92.8697 267.797 92.8697 267.401C92.8697 267.006 92.7126 266.627 92.4331 266.347C92.1536 266.068 91.7745 265.911 91.3792 265.911H88.3982V264.42C88.3982 264.025 88.2411 263.646 87.9616 263.366C87.6821 263.087 87.303 262.93 86.9077 262.93C86.5124 262.93 86.1333 263.087 85.8537 263.366C85.5742 263.646 85.4172 264.025 85.4172 264.42V265.911C84.2313 265.911 83.0939 266.382 82.2554 267.22C81.4168 268.059 80.9457 269.196 80.9457 270.382C80.9457 271.568 81.4168 272.706 82.2554 273.544C83.0939 274.383 84.2313 274.854 85.4172 274.854H88.3982C88.7935 274.854 89.1726 275.011 89.4521 275.29C89.7316 275.57 89.8887 275.949 89.8887 276.344C89.8887 276.74 89.7316 277.119 89.4521 277.398C89.1726 277.678 88.7935 277.835 88.3982 277.835H82.4362C82.0409 277.835 81.6618 277.992 81.3823 278.271C81.1027 278.551 80.9457 278.93 80.9457 279.325C80.9457 279.721 81.1027 280.1 81.3823 280.379C81.6618 280.659 82.0409 280.816 82.4362 280.816H85.4172V282.306C85.4172 282.702 85.5742 283.081 85.8537 283.36C86.1333 283.64 86.5124 283.797 86.9077 283.797C87.303 283.797 87.6821 283.64 87.9616 283.36C88.2411 283.081 88.3982 282.702 88.3982 282.306V280.816C89.5841 280.816 90.7214 280.345 91.56 279.506C92.3986 278.667 92.8697 277.53 92.8697 276.344C92.8697 275.158 92.3986 274.021 91.56 273.182C90.7214 272.344 89.5841 271.873 88.3982 271.873H85.4172C85.0219 271.873 84.6428 271.716 84.3632 271.436C84.0837 271.157 83.9267 270.778 83.9267 270.382C83.9267 269.987 84.0837 269.608 84.3632 269.328C84.6428 269.049 85.0219 268.892 85.4172 268.892ZM86.9077 256.968C83.665 256.968 80.4951 257.929 77.7988 259.731C75.1026 261.532 73.0012 264.093 71.7602 267.089C70.5193 270.085 70.1946 273.381 70.8272 276.562C71.4599 279.742 73.0214 282.664 75.3143 284.957C77.6073 287.25 80.5287 288.811 83.7091 289.444C86.8895 290.076 90.1861 289.752 93.182 288.511C96.1778 287.27 98.7385 285.168 100.54 282.472C102.342 279.776 103.303 276.606 103.303 273.363C103.303 269.015 101.576 264.845 98.501 261.77C95.4263 258.695 91.256 256.968 86.9077 256.968ZM86.9077 286.778C84.2546 286.778 81.661 285.991 79.455 284.517C77.249 283.043 75.5296 280.948 74.5143 278.497C73.499 276.046 73.2334 273.348 73.751 270.746C74.2686 268.144 75.5462 265.754 77.4222 263.878C79.2983 262.002 81.6885 260.724 84.2906 260.207C86.8928 259.689 89.59 259.955 92.0412 260.97C94.4924 261.985 96.5874 263.705 98.0614 265.911C99.5354 268.117 100.322 270.71 100.322 273.363C100.322 276.921 98.9089 280.333 96.3932 282.849C93.8774 285.364 90.4654 286.778 86.9077 286.778Z" fill="white"/>
<g clip-path="url(#clip0_82_588)">
<path d="M296.948 108.484C296.948 108.863 297.255 109.17 297.634 109.17H303.805V96.8286H296.948V108.484ZM322.972 85.0262C322.964 84.9892 322.964 84.9494 322.949 84.9138C322.879 84.7437 322.744 84.6093 322.574 84.5394C322.539 84.5243 322.5 84.5257 322.462 84.5161C322.415 84.5065 322.369 84.4873 322.317 84.4873H316.832C316.453 84.4873 316.146 84.7945 316.146 85.1729C316.146 85.5514 316.453 85.8586 316.832 85.8586H320.661L314.975 91.5452C314.707 91.8126 314.707 92.2473 314.975 92.5146C315.109 92.6477 315.285 92.7149 315.46 92.7149C315.636 92.7149 315.811 92.6477 315.944 92.5146L321.631 86.828V90.658C321.631 91.0364 321.938 91.3436 322.317 91.3436C322.695 91.3436 323.002 91.0364 323.002 90.658V85.1729C323.002 85.1208 322.983 85.0742 322.972 85.0262ZM301.199 90.2466L297.291 95.4574H303.873L304.419 89.9723H301.748C301.532 89.9723 301.328 90.0738 301.199 90.2466ZM290.778 91.3436C291.156 91.3436 291.463 91.0364 291.463 90.658V86.8294L297.149 92.5146C297.283 92.6477 297.458 92.7149 297.634 92.7149C297.809 92.7149 297.985 92.6477 298.118 92.5146C298.385 92.2473 298.385 91.8126 298.118 91.5452L292.431 85.8586H296.263C296.641 85.8586 296.948 85.5514 296.948 85.1729C296.948 84.7945 296.641 84.4873 296.263 84.4873H290.778C290.738 84.4873 290.702 84.5038 290.664 84.5106C290.614 84.5188 290.564 84.5202 290.517 84.5394C290.432 84.5751 290.357 84.6244 290.292 84.6889C290.287 84.6944 290.285 84.7026 290.279 84.7081C290.224 84.767 290.176 84.8342 290.144 84.9097C290.11 84.996 290.092 85.0852 290.092 85.1757V90.658C290.092 91.0364 290.399 91.3436 290.778 91.3436ZM296.263 116.026H292.433L296.747 111.712C297.014 111.445 297.014 111.01 296.747 110.743C296.479 110.475 296.045 110.475 295.777 110.743L291.463 115.057V111.227C291.463 110.848 291.156 110.541 290.778 110.541C290.399 110.541 290.092 110.848 290.092 111.227V116.71C290.092 116.801 290.11 116.891 290.146 116.975C290.165 117.02 290.198 117.055 290.225 117.094C290.248 117.129 290.262 117.166 290.292 117.196C290.316 117.218 290.344 117.227 290.369 117.247C290.416 117.282 290.461 117.321 290.516 117.343C290.599 117.38 290.689 117.397 290.778 117.397H296.263C296.641 117.397 296.948 117.09 296.948 116.712C296.948 116.333 296.641 116.026 296.263 116.026ZM322.317 110.541C321.938 110.541 321.631 110.848 321.631 111.227V115.058L317.316 110.743C317.048 110.475 316.614 110.475 316.346 110.743C316.079 111.01 316.079 111.445 316.346 111.712L320.66 116.026H316.832C316.453 116.026 316.146 116.333 316.146 116.712C316.146 117.09 316.453 117.397 316.832 117.397H322.317C322.406 117.397 322.495 117.38 322.579 117.344C322.655 117.312 322.721 117.264 322.781 117.21C322.787 117.204 322.795 117.203 322.801 117.197C322.864 117.134 322.914 117.057 322.949 116.974C322.968 116.926 322.971 116.876 322.979 116.826C322.986 116.787 323.002 116.752 323.002 116.712V111.227C323.002 110.848 322.695 110.541 322.317 110.541ZM311.895 90.2466C311.765 90.0738 311.562 89.9723 311.347 89.9723H308.675L309.224 95.4574H315.803L311.895 90.2466ZM316.146 96.8286H309.286L309.288 109.17H315.46C315.839 109.17 316.146 108.863 316.146 108.484V96.8286Z" fill="white"/>
</g>
<g clip-path="url(#clip1_82_588)">
<path d="M81.2435 99.5107H74.6853V103.446H81.2435V99.5107Z" fill="white"/>
<path d="M81.2435 107.381H74.6853V111.316H81.2435V107.381Z" fill="white"/>
<path d="M100.262 103.446H85.1785V96.232C85.1785 95.87 84.8847 95.5762 84.5227 95.5762H71.4063C71.0443 95.5762 70.7505 95.87 70.7505 96.232V114.595C70.7505 114.957 71.0443 115.251 71.4063 115.251H100.262C100.624 115.251 100.918 114.957 100.918 114.595V104.102C100.918 103.74 100.624 103.446 100.262 103.446ZM82.5552 111.972C82.5552 112.334 82.2614 112.627 81.8994 112.627H74.0296C73.6676 112.627 73.3738 112.334 73.3738 111.972V106.725C73.3738 106.363 73.6676 106.069 74.0296 106.069H81.8994C82.2614 106.069 82.5552 106.363 82.5552 106.725V111.972ZM82.5552 104.102C82.5552 104.464 82.2614 104.758 81.8994 104.758H74.0296C73.6676 104.758 73.3738 104.464 73.3738 104.102V98.8553C73.3738 98.4933 73.6676 98.1994 74.0296 98.1994H81.8994C82.2614 98.1994 82.5552 98.4933 82.5552 98.8553V104.102ZM90.4251 111.972C90.4251 112.334 90.1312 112.627 89.7692 112.627H84.5227C84.1607 112.627 83.8669 112.334 83.8669 111.972V106.725C83.8669 106.363 84.1607 106.069 84.5227 106.069H89.7692C90.1312 106.069 90.4251 106.363 90.4251 106.725V111.972ZM98.2949 111.972C98.2949 112.334 98.0011 112.627 97.6391 112.627H92.3925C92.0305 112.627 91.7367 112.334 91.7367 111.972V106.725C91.7367 106.363 92.0305 106.069 92.3925 106.069H97.6391C98.0011 106.069 98.2949 106.363 98.2949 106.725V111.972Z" fill="white"/>
<path d="M89.1134 107.381H85.1785V111.316H89.1134V107.381Z" fill="white"/>
<path d="M96.9833 107.381H93.0483V111.316H96.9833V107.381Z" fill="white"/>
<path d="M78.2398 94.2641L77.2954 89.5449C77.2338 89.2392 76.9649 89.0176 76.6527 89.0176H74.0295C73.7173 89.0176 73.4484 89.2379 73.3868 89.5449L72.4424 94.2641H78.2398Z" fill="white"/>
<path d="M100.788 102.134L99.6053 84.384C99.5817 84.0391 99.2971 83.7715 98.9508 83.7715H95.0159C94.6696 83.7715 94.385 84.0391 94.3614 84.384L93.6033 95.752L93.0458 89.6148C93.0157 89.2777 92.7323 89.018 92.3926 89.018H88.4577C88.118 89.018 87.8347 89.2764 87.8045 89.6148L86.666 102.134H100.788Z" fill="white"/>
</g>
<path d="M165.441 174.92L160.191 167.91H158.312V174.92H156.462V159.647H158.312V166.269H159.117L165.232 159.647H167.439L161.265 166.359L167.648 174.92H165.441ZM170.665 174.92H168.726L174.334 159.647H176.243L181.851 174.92H179.912L175.348 162.063H175.229L170.665 174.92ZM171.381 168.954H179.196V170.595H171.381V168.954ZM193.208 174.92L187.958 167.91H186.079V174.92H184.23V159.647H186.079V166.269H186.885L193 159.647H195.207L189.032 166.359L195.416 174.92H193.208ZM203.712 159.647H205.92L211.11 172.325H211.289L216.479 159.647H218.687V174.92H216.957V163.316H216.807L212.035 174.92H210.364L205.591 163.316H205.442V174.92H203.712V159.647ZM223.767 166.061H228.122C229.216 166.061 230.138 166.24 230.889 166.597C231.644 166.955 232.216 167.46 232.604 168.111C232.997 168.763 233.193 169.531 233.193 170.416C233.193 171.301 232.997 172.081 232.604 172.757C232.216 173.433 231.644 173.963 230.889 174.346C230.138 174.729 229.216 174.92 228.122 174.92H222.395V159.647H224.244V173.309H228.122C228.818 173.309 229.407 173.17 229.89 172.892C230.377 172.608 230.745 172.245 230.993 171.803C231.247 171.355 231.374 170.883 231.374 170.386C231.374 169.655 231.093 169.026 230.531 168.499C229.969 167.967 229.166 167.701 228.122 167.701H223.767V166.061ZM236.534 159.647V174.92H234.685V159.647H236.534ZM136.888 203.92V188.647H142.048C143.246 188.647 144.226 188.863 144.986 189.296C145.752 189.724 146.319 190.303 146.687 191.034C147.054 191.764 147.238 192.58 147.238 193.48C147.238 194.379 147.054 195.197 146.687 195.933C146.324 196.669 145.762 197.256 145.001 197.693C144.241 198.126 143.266 198.342 142.078 198.342H138.379V196.701H142.018C142.839 196.701 143.497 196.559 143.994 196.276C144.492 195.993 144.852 195.61 145.076 195.128C145.304 194.64 145.419 194.091 145.419 193.48C145.419 192.868 145.304 192.321 145.076 191.839C144.852 191.357 144.489 190.979 143.987 190.705C143.485 190.427 142.819 190.288 141.988 190.288H138.737V203.92H136.888ZM149.285 203.92H147.347L152.954 188.647H154.864L160.472 203.92H158.533L153.969 191.063H153.849L149.285 203.92ZM150.001 197.954H157.817V199.595H150.001V197.954ZM162.85 203.92V188.647H172.068V190.288H164.7V195.061H168.578C169.671 195.061 170.594 195.24 171.344 195.597C172.1 195.955 172.672 196.46 173.06 197.111C173.452 197.763 173.649 198.531 173.649 199.416C173.649 200.301 173.452 201.081 173.06 201.757C172.672 202.433 172.1 202.963 171.344 203.346C170.594 203.729 169.671 203.92 168.578 203.92H162.85ZM164.7 202.309H168.578C169.274 202.309 169.863 202.17 170.345 201.892C170.832 201.608 171.2 201.245 171.449 200.803C171.702 200.355 171.829 199.883 171.829 199.386C171.829 198.655 171.548 198.026 170.986 197.499C170.425 196.967 169.622 196.701 168.578 196.701H164.7V202.309ZM189.58 196.284C189.58 197.894 189.289 199.286 188.707 200.46C188.125 201.633 187.327 202.538 186.313 203.174C185.299 203.811 184.141 204.129 182.838 204.129C181.536 204.129 180.377 203.811 179.363 203.174C178.349 202.538 177.551 201.633 176.969 200.46C176.387 199.286 176.097 197.894 176.097 196.284C176.097 194.673 176.387 193.281 176.969 192.107C177.551 190.934 178.349 190.029 179.363 189.393C180.377 188.757 181.536 188.438 182.838 188.438C184.141 188.438 185.299 188.757 186.313 189.393C187.327 190.029 188.125 190.934 188.707 192.107C189.289 193.281 189.58 194.673 189.58 196.284ZM187.79 196.284C187.79 194.961 187.569 193.845 187.126 192.935C186.689 192.025 186.094 191.337 185.344 190.869C184.598 190.402 183.763 190.169 182.838 190.169C181.913 190.169 181.076 190.402 180.325 190.869C179.579 191.337 178.985 192.025 178.543 192.935C178.105 193.845 177.886 194.961 177.886 196.284C177.886 197.606 178.105 198.722 178.543 199.632C178.985 200.542 179.579 201.23 180.325 201.698C181.076 202.165 181.913 202.399 182.838 202.399C183.763 202.399 184.598 202.165 185.344 201.698C186.094 201.23 186.689 200.542 187.126 199.632C187.569 198.722 187.79 197.606 187.79 196.284ZM191.218 190.288V188.647H202.673V190.288H197.87V203.92H196.021V190.288H191.218ZM204.369 203.92H202.43L208.038 188.647H209.948L215.555 203.92H213.617L209.053 191.063H208.933L204.369 203.92ZM205.085 197.954H212.901V199.595H205.085V197.954ZM217.934 203.92V188.647H227.152V190.288H219.784V195.448H226.674V197.089H219.784V202.279H227.271V203.92H217.934ZM230.485 188.647H232.693L237.883 201.325H238.062L243.252 188.647H245.46V203.92H243.729V192.316H243.58L238.808 203.92H237.137L232.364 192.316H232.215V203.92H230.485V188.647ZM251.226 199.624V199.535C251.236 198.585 251.335 197.83 251.524 197.268C251.713 196.706 251.982 196.251 252.33 195.903C252.678 195.555 253.095 195.235 253.583 194.941C253.876 194.762 254.139 194.551 254.373 194.307C254.607 194.059 254.791 193.773 254.925 193.45C255.064 193.127 255.134 192.769 255.134 192.376C255.134 191.889 255.019 191.466 254.791 191.108C254.562 190.75 254.256 190.474 253.873 190.28C253.491 190.086 253.066 189.99 252.598 189.99C252.191 189.99 251.798 190.074 251.42 190.243C251.042 190.412 250.726 190.678 250.473 191.041C250.219 191.404 250.073 191.879 250.033 192.465H248.154C248.193 191.62 248.412 190.897 248.81 190.295C249.213 189.694 249.742 189.234 250.398 188.916C251.059 188.597 251.793 188.438 252.598 188.438C253.473 188.438 254.234 188.612 254.88 188.96C255.531 189.308 256.034 189.786 256.387 190.392C256.744 190.999 256.923 191.69 256.923 192.465C256.923 193.012 256.839 193.507 256.67 193.949C256.506 194.392 256.267 194.787 255.954 195.135C255.646 195.483 255.273 195.791 254.835 196.06C254.398 196.333 254.047 196.622 253.784 196.925C253.52 197.223 253.329 197.579 253.21 197.991C253.09 198.404 253.026 198.919 253.016 199.535V199.624H251.226ZM252.181 204.039C251.813 204.039 251.497 203.907 251.233 203.644C250.97 203.381 250.838 203.065 250.838 202.697C250.838 202.329 250.97 202.013 251.233 201.75C251.497 201.486 251.813 201.355 252.181 201.355C252.548 201.355 252.864 201.486 253.128 201.75C253.391 202.013 253.523 202.329 253.523 202.697C253.523 202.941 253.461 203.164 253.336 203.368C253.217 203.572 253.056 203.736 252.852 203.86C252.653 203.98 252.429 204.039 252.181 204.039Z" fill="white"/>
<path d="M6.95313 31V39H5.98438V31.8594H1.95313V39H0.984375V31H6.95313ZM8.90723 39V31H11.6104C12.238 31 12.751 31.1133 13.1494 31.3398C13.5505 31.5638 13.8473 31.8672 14.04 32.25C14.2327 32.6328 14.3291 33.0599 14.3291 33.5312C14.3291 34.0026 14.2327 34.431 14.04 34.8164C13.8499 35.2018 13.5557 35.5091 13.1572 35.7383C12.7588 35.9648 12.2484 36.0781 11.626 36.0781H9.68848V35.2188H11.5947C12.0244 35.2188 12.3695 35.1445 12.6299 34.9961C12.8903 34.8477 13.0791 34.6471 13.1963 34.3945C13.3161 34.1393 13.376 33.8516 13.376 33.5312C13.376 33.2109 13.3161 32.9245 13.1963 32.6719C13.0791 32.4193 12.889 32.2214 12.626 32.0781C12.363 31.9323 12.014 31.8594 11.5791 31.8594H9.87598V39H8.90723ZM22.6396 35C22.6396 35.8437 22.4873 36.5729 22.1826 37.1875C21.8779 37.8021 21.46 38.276 20.9287 38.6094C20.3975 38.9427 19.7907 39.1094 19.1084 39.1094C18.4261 39.1094 17.8193 38.9427 17.2881 38.6094C16.7568 38.276 16.3389 37.8021 16.0342 37.1875C15.7295 36.5729 15.5771 35.8437 15.5771 35C15.5771 34.1562 15.7295 33.4271 16.0342 32.8125C16.3389 32.1979 16.7568 31.724 17.2881 31.3906C17.8193 31.0573 18.4261 30.8906 19.1084 30.8906C19.7907 30.8906 20.3975 31.0573 20.9287 31.3906C21.46 31.724 21.8779 32.1979 22.1826 32.8125C22.4873 33.4271 22.6396 34.1562 22.6396 35ZM21.7021 35C21.7021 34.3073 21.5863 33.7227 21.3545 33.2461C21.1253 32.7695 20.8141 32.4089 20.4209 32.1641C20.0303 31.9193 19.5928 31.7969 19.1084 31.7969C18.624 31.7969 18.1852 31.9193 17.792 32.1641C17.4014 32.4089 17.0902 32.7695 16.8584 33.2461C16.6292 33.7227 16.5146 34.3073 16.5146 35C16.5146 35.6927 16.6292 36.2773 16.8584 36.7539C17.0902 37.2305 17.4014 37.5911 17.792 37.8359C18.1852 38.0807 18.624 38.2031 19.1084 38.2031C19.5928 38.2031 20.0303 38.0807 20.4209 37.8359C20.8141 37.5911 21.1253 37.2305 21.3545 36.7539C21.5863 36.2773 21.7021 35.6927 21.7021 35ZM24.2686 31H25.2217V37.2969H25.2998L29.6748 31H30.6123V39H29.6436V32.7187H29.5654L25.2061 39H24.2686V31ZM35.1133 39.1094C34.5977 39.1094 34.138 39.0208 33.7344 38.8437C33.3333 38.6667 33.0143 38.4206 32.7773 38.1055C32.543 37.7878 32.4154 37.4193 32.3945 37H33.3789C33.3997 37.2578 33.4883 37.4805 33.6445 37.668C33.8008 37.8529 34.0052 37.9961 34.2578 38.0977C34.5104 38.1992 34.7904 38.25 35.0977 38.25C35.4414 38.25 35.7461 38.1901 36.0117 38.0703C36.2773 37.9505 36.4857 37.7839 36.6367 37.5703C36.7878 37.3568 36.8633 37.1094 36.8633 36.8281C36.8633 36.5339 36.7904 36.2747 36.6445 36.0508C36.4987 35.8242 36.2852 35.6471 36.0039 35.5195C35.7227 35.3919 35.3789 35.3281 34.9727 35.3281H34.332V34.4687H34.9727C35.2904 34.4687 35.569 34.4115 35.8086 34.2969C36.0508 34.1823 36.2396 34.0208 36.375 33.8125C36.513 33.6042 36.582 33.3594 36.582 33.0781C36.582 32.8073 36.5221 32.5716 36.4023 32.3711C36.2826 32.1706 36.1133 32.0143 35.8945 31.9023C35.6784 31.7904 35.4232 31.7344 35.1289 31.7344C34.8529 31.7344 34.5924 31.7852 34.3477 31.8867C34.1055 31.9857 33.9076 32.1302 33.7539 32.3203C33.6003 32.5078 33.5169 32.7344 33.5039 33H32.5664C32.582 32.5807 32.7083 32.2135 32.9453 31.8984C33.1823 31.5807 33.4922 31.3333 33.875 31.1562C34.2604 30.9792 34.6836 30.8906 35.1445 30.8906C35.6393 30.8906 36.0638 30.9909 36.418 31.1914C36.7721 31.3893 37.0443 31.651 37.2344 31.9766C37.4245 32.3021 37.5195 32.6536 37.5195 33.0313C37.5195 33.4818 37.401 33.8659 37.1641 34.1836C36.9297 34.5013 36.6107 34.7214 36.207 34.8438V34.9062C36.7122 34.9896 37.1068 35.2044 37.3906 35.5508C37.6745 35.8945 37.8164 36.3203 37.8164 36.8281C37.8164 37.263 37.6979 37.6536 37.4609 38C37.2266 38.3437 36.9063 38.6146 36.5 38.8125C36.0938 39.0104 35.6315 39.1094 35.1133 39.1094ZM39.5547 39V31H42.3516C42.9089 31 43.3685 31.0964 43.7305 31.2891C44.0924 31.4792 44.362 31.7357 44.5391 32.0586C44.7161 32.3789 44.8047 32.7344 44.8047 33.125C44.8047 33.4687 44.7435 33.7526 44.6211 33.9766C44.5013 34.2005 44.3424 34.3776 44.1445 34.5078C43.9492 34.638 43.737 34.7344 43.5078 34.7969V34.875C43.7526 34.8906 43.9987 34.9766 44.2461 35.1328C44.4935 35.2891 44.7005 35.513 44.8672 35.8047C45.0339 36.0964 45.1172 36.4531 45.1172 36.875C45.1172 37.276 45.026 37.6367 44.8438 37.957C44.6615 38.2773 44.3737 38.5312 43.9805 38.7187C43.5872 38.9062 43.0755 39 42.4453 39H39.5547ZM40.5234 38.1406H42.4453C43.0781 38.1406 43.5273 38.0182 43.793 37.7734C44.0612 37.526 44.1953 37.2266 44.1953 36.875C44.1953 36.6042 44.1263 36.3542 43.9883 36.125C43.8503 35.8932 43.6536 35.7083 43.3984 35.5703C43.1432 35.4297 42.8411 35.3594 42.4922 35.3594H40.5234V38.1406ZM40.5234 34.5156H42.3203C42.612 34.5156 42.875 34.4583 43.1094 34.3437C43.3464 34.2292 43.5339 34.0677 43.6719 33.8594C43.8125 33.651 43.8828 33.4062 43.8828 33.125C43.8828 32.7734 43.7604 32.4753 43.5156 32.2305C43.2708 31.9831 42.8828 31.8594 42.3516 31.8594H40.5234V34.5156ZM53.459 35C53.459 35.8437 53.3066 36.5729 53.002 37.1875C52.6973 37.8021 52.2793 38.276 51.748 38.6094C51.2168 38.9427 50.61 39.1094 49.9277 39.1094C49.2454 39.1094 48.6387 38.9427 48.1074 38.6094C47.5762 38.276 47.1582 37.8021 46.8535 37.1875C46.5488 36.5729 46.3965 35.8437 46.3965 35C46.3965 34.1562 46.5488 33.4271 46.8535 32.8125C47.1582 32.1979 47.5762 31.724 48.1074 31.3906C48.6387 31.0573 49.2454 30.8906 49.9277 30.8906C50.61 30.8906 51.2168 31.0573 51.748 31.3906C52.2793 31.724 52.6973 32.1979 53.002 32.8125C53.3066 33.4271 53.459 34.1562 53.459 35ZM52.5215 35C52.5215 34.3073 52.4056 33.7227 52.1738 33.2461C51.9447 32.7695 51.6335 32.4089 51.2402 32.1641C50.8496 31.9193 50.4121 31.7969 49.9277 31.7969C49.4434 31.7969 49.0046 31.9193 48.6113 32.1641C48.2207 32.4089 47.9095 32.7695 47.6777 33.2461C47.4486 33.7227 47.334 34.3073 47.334 35C47.334 35.6927 47.4486 36.2773 47.6777 36.7539C47.9095 37.2305 48.2207 37.5911 48.6113 37.8359C49.0046 38.0807 49.4434 38.2031 49.9277 38.2031C50.4121 38.2031 50.8496 38.0807 51.2402 37.8359C51.6335 37.5911 51.9447 37.2305 52.1738 36.7539C52.4056 36.2773 52.5215 35.6927 52.5215 35ZM54.4004 40.9375V38.1406H54.916C55.0931 37.9792 55.2598 37.7513 55.416 37.457C55.5749 37.1602 55.709 36.7643 55.8184 36.2695C55.9303 35.7721 56.0046 35.1406 56.041 34.375L56.2129 31H60.9629V38.1406H61.8848V40.9219H60.9629V39H55.3223V40.9375H54.4004ZM56.0723 38.1406H60.041V31.8594H57.0879L56.9629 34.375C56.9316 34.9583 56.877 35.487 56.7988 35.9609C56.7207 36.4323 56.6204 36.8503 56.498 37.2148C56.3757 37.5768 56.2337 37.8854 56.0723 38.1406ZM63.3486 31H64.3018V37.2969H64.3799L68.7549 31H69.6924V39H68.7236V32.7187H68.6455L64.2861 39H63.3486V31ZM71.1934 31.8594V31H77.1934V31.8594H74.6777V39H73.709V31.8594H71.1934ZM78.6885 39V31H83.5166V31.8594H79.6572V34.5625H83.2666V35.4219H79.6572V38.1406H83.5791V39H78.6885ZM84.5752 39V38.1094H84.8096C85.1429 38.1094 85.402 38.0026 85.5869 37.7891C85.7718 37.5755 85.9046 37.2305 85.9854 36.7539C86.0687 36.2773 86.1247 35.6458 86.1533 34.8594L86.2939 31H91.1689V39H90.2002V31.8594H87.2158L87.0908 35.0469C87.0596 35.8854 86.9827 36.599 86.8604 37.1875C86.738 37.776 86.5231 38.2253 86.2158 38.5352C85.9085 38.8451 85.4606 39 84.8721 39H84.5752ZM93.8232 34.3594H96.1045C96.6774 34.3594 97.1605 34.4531 97.5537 34.6406C97.9495 34.8281 98.249 35.0924 98.4521 35.4336C98.6579 35.7747 98.7607 36.1771 98.7607 36.6406C98.7607 37.1042 98.6579 37.513 98.4521 37.8672C98.249 38.2214 97.9495 38.4987 97.5537 38.6992C97.1605 38.8997 96.6774 39 96.1045 39H93.1045V31H94.0732V38.1562H96.1045C96.4691 38.1562 96.7777 38.0833 97.0303 37.9375C97.2855 37.7891 97.4782 37.599 97.6084 37.3672C97.7412 37.1328 97.8076 36.8854 97.8076 36.625C97.8076 36.2422 97.6605 35.9128 97.3662 35.6367C97.0719 35.3581 96.6514 35.2188 96.1045 35.2188H93.8232V34.3594Z" fill="white"/>
<path d="M6.95313 341V349H5.98438V341.859H1.95313V349H0.984375V341H6.95313ZM15.6572 345C15.6572 345.844 15.5049 346.573 15.2002 347.187C14.8955 347.802 14.4775 348.276 13.9463 348.609C13.415 348.943 12.8083 349.109 12.126 349.109C11.4437 349.109 10.8369 348.943 10.3057 348.609C9.77441 348.276 9.35645 347.802 9.05176 347.187C8.74707 346.573 8.59473 345.844 8.59473 345C8.59473 344.156 8.74707 343.427 9.05176 342.812C9.35645 342.198 9.77441 341.724 10.3057 341.391C10.8369 341.057 11.4437 340.891 12.126 340.891C12.8083 340.891 13.415 341.057 13.9463 341.391C14.4775 341.724 14.8955 342.198 15.2002 342.812C15.5049 343.427 15.6572 344.156 15.6572 345ZM14.7197 345C14.7197 344.307 14.6038 343.723 14.3721 343.246C14.1429 342.77 13.8317 342.409 13.4385 342.164C13.0479 341.919 12.6104 341.797 12.126 341.797C11.6416 341.797 11.2028 341.919 10.8096 342.164C10.4189 342.409 10.1077 342.77 9.87598 343.246C9.64681 343.723 9.53223 344.307 9.53223 345C9.53223 345.693 9.64681 346.277 9.87598 346.754C10.1077 347.23 10.4189 347.591 10.8096 347.836C11.2028 348.081 11.6416 348.203 12.126 348.203C12.6104 348.203 13.0479 348.081 13.4385 347.836C13.8317 347.591 14.1429 347.23 14.3721 346.754C14.6038 346.277 14.7197 345.693 14.7197 345ZM21.9893 349L19.2393 345.328H18.2549V349H17.2861V341H18.2549V344.469H18.6768L21.8799 341H23.0361L19.8018 344.516L23.1455 349H21.9893ZM24.8193 349.109V348.203H25.3193C25.512 348.203 25.6735 348.165 25.8037 348.09C25.9365 348.014 26.0459 347.917 26.1318 347.797C26.2204 347.677 26.2933 347.552 26.3506 347.422L26.4756 347.125L23.71 341H24.7568L26.96 345.969L28.9756 341H30.0068L27.2412 347.703C27.1318 347.953 27.0068 348.185 26.8662 348.398C26.7282 348.612 26.5394 348.784 26.2998 348.914C26.0628 349.044 25.7412 349.109 25.335 349.109H24.8193ZM37.2461 341V349H36.2773V341.859H32.2461V349H31.2773V341H37.2461ZM39.5283 349H38.5127L41.4502 341H42.4502L45.3877 349H44.3721L41.9814 342.266H41.9189L39.5283 349ZM39.9033 345.875H43.9971V346.734H39.9033V345.875ZM45.2617 341.859V341H51.2617V341.859H48.7461V349H47.7773V341.859H45.2617ZM52.7568 349V341H57.585V341.859H53.7256V344.562H57.335V345.422H53.7256V348.141H57.6475V349H52.7568ZM58.6436 349V348.109H58.8779C59.2113 348.109 59.4704 348.003 59.6553 347.789C59.8402 347.576 59.973 347.23 60.0537 346.754C60.137 346.277 60.193 345.646 60.2217 344.859L60.3623 341H65.2373V349H64.2686V341.859H61.2842L61.1592 345.047C61.1279 345.885 61.0511 346.599 60.9287 347.187C60.8063 347.776 60.5915 348.225 60.2842 348.535C59.9769 348.845 59.529 349 58.9404 349H58.6436ZM67.8916 344.359H70.1729C70.7458 344.359 71.2288 344.453 71.6221 344.641C72.0179 344.828 72.3174 345.092 72.5205 345.434C72.7262 345.775 72.8291 346.177 72.8291 346.641C72.8291 347.104 72.7262 347.513 72.5205 347.867C72.3174 348.221 72.0179 348.499 71.6221 348.699C71.2288 348.9 70.7458 349 70.1729 349H67.1729V341H68.1416V348.156H70.1729C70.5374 348.156 70.846 348.083 71.0986 347.937C71.3538 347.789 71.5465 347.599 71.6768 347.367C71.8096 347.133 71.876 346.885 71.876 346.625C71.876 346.242 71.7288 345.913 71.4346 345.637C71.1403 345.358 70.7197 345.219 70.1729 345.219H67.8916V344.359Z" fill="white"/>
<path d="M298.761 40.9375V38.1406H299.276C299.453 37.9792 299.62 37.7513 299.776 37.457C299.935 37.1602 300.069 36.7643 300.179 36.2695C300.291 35.7721 300.365 35.1406 300.401 34.375L300.573 31H305.323V38.1406H306.245V40.9219H305.323V39H299.683V40.9375H298.761ZM300.433 38.1406H304.401V31.8594H301.448L301.323 34.375C301.292 34.9583 301.237 35.487 301.159 35.9609C301.081 36.4323 300.981 36.8503 300.858 37.2148C300.736 37.5768 300.594 37.8854 300.433 38.1406ZM307.709 31H308.662V37.2969H308.74L313.115 31H314.053V39H313.084V32.7187H313.006L308.646 39H307.709V31ZM322.429 33.5H321.46C321.403 33.2214 321.302 32.9766 321.159 32.7656C321.019 32.5547 320.847 32.3776 320.644 32.2344C320.443 32.0885 320.22 31.9792 319.976 31.9062C319.731 31.8333 319.476 31.7969 319.21 31.7969C318.726 31.7969 318.287 31.9193 317.894 32.1641C317.503 32.4089 317.192 32.7695 316.96 33.2461C316.731 33.7227 316.616 34.3073 316.616 35C316.616 35.6927 316.731 36.2773 316.96 36.7539C317.192 37.2305 317.503 37.5911 317.894 37.8359C318.287 38.0807 318.726 38.2031 319.21 38.2031C319.476 38.2031 319.731 38.1667 319.976 38.0937C320.22 38.0208 320.443 37.9128 320.644 37.7695C320.847 37.6237 321.019 37.4453 321.159 37.2344C321.302 37.0208 321.403 36.776 321.46 36.5H322.429C322.356 36.9089 322.223 37.2747 322.03 37.5977C321.838 37.9206 321.598 38.1953 321.312 38.4219C321.025 38.6458 320.703 38.8164 320.347 38.9336C319.993 39.0508 319.614 39.1094 319.21 39.1094C318.528 39.1094 317.921 38.9427 317.39 38.6094C316.858 38.276 316.44 37.8021 316.136 37.1875C315.831 36.5729 315.679 35.8437 315.679 35C315.679 34.1562 315.831 33.4271 316.136 32.8125C316.44 32.1979 316.858 31.724 317.39 31.3906C317.921 31.0573 318.528 30.8906 319.21 30.8906C319.614 30.8906 319.993 30.9492 320.347 31.0664C320.703 31.1836 321.025 31.3555 321.312 31.582C321.598 31.806 321.838 32.0794 322.03 32.4023C322.223 32.7227 322.356 33.0885 322.429 33.5ZM323.557 31.8594V31H329.557V31.8594H327.041V39H326.072V31.8594H323.557ZM331.052 39V31H333.755C334.382 31 334.896 31.1133 335.294 31.3398C335.695 31.5638 335.992 31.8672 336.185 32.25C336.377 32.6328 336.474 33.0599 336.474 33.5312C336.474 34.0026 336.377 34.431 336.185 34.8164C335.994 35.2018 335.7 35.5091 335.302 35.7383C334.903 35.9648 334.393 36.0781 333.771 36.0781H331.833V35.2188H333.739C334.169 35.2188 334.514 35.1445 334.774 34.9961C335.035 34.8477 335.224 34.6471 335.341 34.3945C335.461 34.1393 335.521 33.8516 335.521 33.5312C335.521 33.2109 335.461 32.9245 335.341 32.6719C335.224 32.4193 335.034 32.2214 334.771 32.0781C334.507 31.9323 334.159 31.8594 333.724 31.8594H332.021V39H331.052ZM338.034 31H338.987V37.2969H339.065L343.44 31H344.378V39H343.409V32.7187H343.331L338.972 39H338.034V31ZM346.316 39V31H351.145V31.8594H347.285V34.3594H349.316C349.889 34.3594 350.372 34.4531 350.766 34.6406C351.161 34.8281 351.461 35.0924 351.664 35.4336C351.87 35.7747 351.973 36.1771 351.973 36.6406C351.973 37.1042 351.87 37.513 351.664 37.8672C351.461 38.2214 351.161 38.4987 350.766 38.6992C350.372 38.8997 349.889 39 349.316 39H346.316ZM347.285 38.1562H349.316C349.681 38.1562 349.99 38.0833 350.242 37.9375C350.497 37.7891 350.69 37.599 350.82 37.3672C350.953 37.1328 351.02 36.8854 351.02 36.625C351.02 36.2422 350.872 35.9128 350.578 35.6367C350.284 35.3581 349.863 35.2188 349.316 35.2188H347.285V38.1562ZM354.286 34.3594H356.567C357.14 34.3594 357.623 34.4531 358.017 34.6406C358.412 34.8281 358.712 35.0924 358.915 35.4336C359.121 35.7747 359.224 36.1771 359.224 36.6406C359.224 37.1042 359.121 37.513 358.915 37.8672C358.712 38.2214 358.412 38.4987 358.017 38.6992C357.623 38.8997 357.14 39 356.567 39H353.567V31H354.536V38.1562H356.567C356.932 38.1562 357.241 38.0833 357.493 37.9375C357.748 37.7891 357.941 37.599 358.071 37.3672C358.204 37.1328 358.271 36.8854 358.271 36.625C358.271 36.2422 358.123 35.9128 357.829 35.6367C357.535 35.3581 357.114 35.2188 356.567 35.2188H354.286V34.3594ZM361.723 31V39H360.754V31H361.723ZM363.469 34.6406V35.5H361.02V34.6406H363.469ZM370.254 35C370.254 35.8437 370.102 36.5729 369.797 37.1875C369.492 37.8021 369.074 38.276 368.543 38.6094C368.012 38.9427 367.405 39.1094 366.723 39.1094C366.04 39.1094 365.434 38.9427 364.902 38.6094C364.371 38.276 363.953 37.8021 363.648 37.1875C363.344 36.5729 363.191 35.8437 363.191 35C363.191 34.1562 363.344 33.4271 363.648 32.8125C363.953 32.1979 364.371 31.724 364.902 31.3906C365.434 31.0573 366.04 30.8906 366.723 30.8906C367.405 30.8906 368.012 31.0573 368.543 31.3906C369.074 31.724 369.492 32.1979 369.797 32.8125C370.102 33.4271 370.254 34.1562 370.254 35ZM369.316 35C369.316 34.3073 369.201 33.7227 368.969 33.2461C368.74 32.7695 368.428 32.4089 368.035 32.1641C367.645 31.9193 367.207 31.7969 366.723 31.7969C366.238 31.7969 365.799 31.9193 365.406 32.1641C365.016 32.4089 364.704 32.7695 364.473 33.2461C364.243 33.7227 364.129 34.3073 364.129 35C364.129 35.6927 364.243 36.2773 364.473 36.7539C364.704 37.2305 365.016 37.5911 365.406 37.8359C365.799 38.0807 366.238 38.2031 366.723 38.2031C367.207 38.2031 367.645 38.0807 368.035 37.8359C368.428 37.5911 368.74 37.2305 368.969 36.7539C369.201 36.2773 369.316 35.6927 369.316 35ZM371.445 31.8594V31H377.445V31.8594H374.93V39H373.961V31.8594H371.445ZM385.357 35C385.357 35.8437 385.205 36.5729 384.9 37.1875C384.596 37.8021 384.178 38.276 383.646 38.6094C383.115 38.9427 382.508 39.1094 381.826 39.1094C381.144 39.1094 380.537 38.9427 380.006 38.6094C379.475 38.276 379.057 37.8021 378.752 37.1875C378.447 36.5729 378.295 35.8437 378.295 35C378.295 34.1562 378.447 33.4271 378.752 32.8125C379.057 32.1979 379.475 31.724 380.006 31.3906C380.537 31.0573 381.144 30.8906 381.826 30.8906C382.508 30.8906 383.115 31.0573 383.646 31.3906C384.178 31.724 384.596 32.1979 384.9 32.8125C385.205 33.4271 385.357 34.1562 385.357 35ZM384.42 35C384.42 34.3073 384.304 33.7227 384.072 33.2461C383.843 32.7695 383.532 32.4089 383.139 32.1641C382.748 31.9193 382.311 31.7969 381.826 31.7969C381.342 31.7969 380.903 31.9193 380.51 32.1641C380.119 32.4089 379.808 32.7695 379.576 33.2461C379.347 33.7227 379.232 34.3073 379.232 35C379.232 35.6927 379.347 36.2773 379.576 36.7539C379.808 37.2305 380.119 37.5911 380.51 37.8359C380.903 38.0807 381.342 38.2031 381.826 38.2031C382.311 38.2031 382.748 38.0807 383.139 37.8359C383.532 37.5911 383.843 37.2305 384.072 36.7539C384.304 36.2773 384.42 35.6927 384.42 35ZM386.986 39V31H389.689C390.317 31 390.83 31.1133 391.229 31.3398C391.63 31.5638 391.926 31.8672 392.119 32.25C392.312 32.6328 392.408 33.0599 392.408 33.5312C392.408 34.0026 392.312 34.431 392.119 34.8164C391.929 35.2018 391.635 35.5091 391.236 35.7383C390.838 35.9648 390.327 36.0781 389.705 36.0781H387.768V35.2188H389.674C390.104 35.2188 390.449 35.1445 390.709 34.9961C390.969 34.8477 391.158 34.6471 391.275 34.3945C391.395 34.1393 391.455 33.8516 391.455 33.5312C391.455 33.2109 391.395 32.9245 391.275 32.6719C391.158 32.4193 390.968 32.2214 390.705 32.0781C390.442 31.9323 390.093 31.8594 389.658 31.8594H387.955V39H386.986Z" fill="white"/>
<path d="M323.253 345V337H325.956C326.584 337 327.097 337.113 327.495 337.34C327.896 337.564 328.193 337.867 328.386 338.25C328.578 338.633 328.675 339.06 328.675 339.531C328.675 340.003 328.578 340.431 328.386 340.816C328.196 341.202 327.901 341.509 327.503 341.738C327.104 341.965 326.594 342.078 325.972 342.078H324.034V341.219H325.94C326.37 341.219 326.715 341.145 326.976 340.996C327.236 340.848 327.425 340.647 327.542 340.395C327.662 340.139 327.722 339.852 327.722 339.531C327.722 339.211 327.662 338.924 327.542 338.672C327.425 338.419 327.235 338.221 326.972 338.078C326.709 337.932 326.36 337.859 325.925 337.859H324.222V345H323.253ZM336.985 341C336.985 341.844 336.833 342.573 336.528 343.187C336.224 343.802 335.806 344.276 335.274 344.609C334.743 344.943 334.136 345.109 333.454 345.109C332.772 345.109 332.165 344.943 331.634 344.609C331.103 344.276 330.685 343.802 330.38 343.187C330.075 342.573 329.923 341.844 329.923 341C329.923 340.156 330.075 339.427 330.38 338.812C330.685 338.198 331.103 337.724 331.634 337.391C332.165 337.057 332.772 336.891 333.454 336.891C334.136 336.891 334.743 337.057 335.274 337.391C335.806 337.724 336.224 338.198 336.528 338.812C336.833 339.427 336.985 340.156 336.985 341ZM336.048 341C336.048 340.307 335.932 339.723 335.7 339.246C335.471 338.77 335.16 338.409 334.767 338.164C334.376 337.919 333.938 337.797 333.454 337.797C332.97 337.797 332.531 337.919 332.138 338.164C331.747 338.409 331.436 338.77 331.204 339.246C330.975 339.723 330.86 340.307 330.86 341C330.86 341.693 330.975 342.277 331.204 342.754C331.436 343.23 331.747 343.591 332.138 343.836C332.531 344.081 332.97 344.203 333.454 344.203C333.938 344.203 334.376 344.081 334.767 343.836C335.16 343.591 335.471 343.23 335.7 342.754C335.932 342.277 336.048 341.693 336.048 341ZM341.177 345.109C340.661 345.109 340.201 345.021 339.798 344.844C339.397 344.667 339.078 344.421 338.841 344.105C338.606 343.788 338.479 343.419 338.458 343H339.442C339.463 343.258 339.552 343.48 339.708 343.668C339.864 343.853 340.069 343.996 340.321 344.098C340.574 344.199 340.854 344.25 341.161 344.25C341.505 344.25 341.81 344.19 342.075 344.07C342.341 343.951 342.549 343.784 342.7 343.57C342.851 343.357 342.927 343.109 342.927 342.828C342.927 342.534 342.854 342.275 342.708 342.051C342.562 341.824 342.349 341.647 342.067 341.52C341.786 341.392 341.442 341.328 341.036 341.328H340.396V340.469H341.036C341.354 340.469 341.632 340.411 341.872 340.297C342.114 340.182 342.303 340.021 342.438 339.812C342.576 339.604 342.646 339.359 342.646 339.078C342.646 338.807 342.586 338.572 342.466 338.371C342.346 338.171 342.177 338.014 341.958 337.902C341.742 337.79 341.487 337.734 341.192 337.734C340.916 337.734 340.656 337.785 340.411 337.887C340.169 337.986 339.971 338.13 339.817 338.32C339.664 338.508 339.58 338.734 339.567 339H338.63C338.646 338.581 338.772 338.214 339.009 337.898C339.246 337.581 339.556 337.333 339.938 337.156C340.324 336.979 340.747 336.891 341.208 336.891C341.703 336.891 342.127 336.991 342.481 337.191C342.836 337.389 343.108 337.651 343.298 337.977C343.488 338.302 343.583 338.654 343.583 339.031C343.583 339.482 343.465 339.866 343.228 340.184C342.993 340.501 342.674 340.721 342.271 340.844V340.906C342.776 340.99 343.17 341.204 343.454 341.551C343.738 341.895 343.88 342.32 343.88 342.828C343.88 343.263 343.761 343.654 343.524 344C343.29 344.344 342.97 344.615 342.563 344.812C342.157 345.01 341.695 345.109 341.177 345.109ZM345.618 345V337H346.587V340.562H350.853V337H351.821V345H350.853V341.422H346.587V345H345.618ZM353.761 337H354.714V343.297H354.792L359.167 337H360.104V345H359.136V338.719H359.058L354.698 345H353.761V337ZM362.121 337H363.09V339.672C363.09 340.068 363.159 340.379 363.297 340.605C363.435 340.829 363.63 340.988 363.883 341.082C364.135 341.173 364.434 341.219 364.777 341.219C364.993 341.219 365.203 341.211 365.406 341.195C365.609 341.177 365.807 341.152 366 341.121C366.195 341.09 366.385 341.052 366.57 341.008C366.758 340.964 366.941 340.914 367.121 340.859V341.734C366.947 341.789 366.773 341.839 366.602 341.883C366.432 341.927 366.255 341.965 366.07 341.996C365.888 342.027 365.691 342.052 365.48 342.07C365.27 342.086 365.035 342.094 364.777 342.094C364.225 342.094 363.75 342.014 363.352 341.855C362.956 341.697 362.651 341.44 362.438 341.086C362.227 340.732 362.121 340.26 362.121 339.672V337ZM366.996 337H367.965V345H366.996V337ZM369.906 345V337H370.875V340.562H375.141V337H376.109V345H375.141V341.422H370.875V345H369.906ZM378.768 340.359H381.049C381.622 340.359 382.105 340.453 382.498 340.641C382.894 340.828 383.193 341.092 383.396 341.434C383.602 341.775 383.705 342.177 383.705 342.641C383.705 343.104 383.602 343.513 383.396 343.867C383.193 344.221 382.894 344.499 382.498 344.699C382.105 344.9 381.622 345 381.049 345H378.049V337H379.018V344.156H381.049C381.413 344.156 381.722 344.083 381.975 343.937C382.23 343.789 382.423 343.599 382.553 343.367C382.686 343.133 382.752 342.885 382.752 342.625C382.752 342.242 382.605 341.913 382.311 341.637C382.016 341.358 381.596 341.219 381.049 341.219H378.768V340.359ZM385.455 337V345H384.486V337H385.455ZM387.395 345V337H392.223V337.859H388.363V340.562H391.973V341.422H388.363V344.141H392.285V345H387.395ZM331.148 354H332.305L335.023 360.641H335.117L337.836 354H338.992V362H338.086V355.922H338.008L335.508 362H334.633L332.133 355.922H332.055V362H331.148V354ZM341.263 362H340.247L343.185 354H344.185L347.122 362H346.106L343.716 355.266H343.653L341.263 362ZM341.638 358.875H345.731V359.734H341.638V358.875ZM353.196 354V354.859H349.337V362H348.368V354H353.196ZM354.089 362H353.073L356.011 354H357.011L359.948 362H358.933L356.542 355.266H356.479L354.089 362ZM354.464 358.875H358.558V359.734H354.464V358.875ZM363.757 362.109C363.241 362.109 362.782 362.021 362.378 361.844C361.977 361.667 361.658 361.421 361.421 361.105C361.187 360.788 361.059 360.419 361.038 360H362.022C362.043 360.258 362.132 360.48 362.288 360.668C362.444 360.853 362.649 360.996 362.901 361.098C363.154 361.199 363.434 361.25 363.741 361.25C364.085 361.25 364.39 361.19 364.655 361.07C364.921 360.951 365.129 360.784 365.28 360.57C365.431 360.357 365.507 360.109 365.507 359.828C365.507 359.534 365.434 359.275 365.288 359.051C365.142 358.824 364.929 358.647 364.647 358.52C364.366 358.392 364.022 358.328 363.616 358.328H362.976V357.469H363.616C363.934 357.469 364.213 357.411 364.452 357.297C364.694 357.182 364.883 357.021 365.019 356.812C365.157 356.604 365.226 356.359 365.226 356.078C365.226 355.807 365.166 355.572 365.046 355.371C364.926 355.171 364.757 355.014 364.538 354.902C364.322 354.79 364.067 354.734 363.772 354.734C363.496 354.734 363.236 354.785 362.991 354.887C362.749 354.986 362.551 355.13 362.397 355.32C362.244 355.508 362.16 355.734 362.147 356H361.21C361.226 355.581 361.352 355.214 361.589 354.898C361.826 354.581 362.136 354.333 362.519 354.156C362.904 353.979 363.327 353.891 363.788 353.891C364.283 353.891 364.707 353.991 365.062 354.191C365.416 354.389 365.688 354.651 365.878 354.977C366.068 355.302 366.163 355.654 366.163 356.031C366.163 356.482 366.045 356.866 365.808 357.184C365.573 357.501 365.254 357.721 364.851 357.844V357.906C365.356 357.99 365.75 358.204 366.034 358.551C366.318 358.895 366.46 359.32 366.46 359.828C366.46 360.263 366.341 360.654 366.104 361C365.87 361.344 365.55 361.615 365.144 361.812C364.737 362.01 364.275 362.109 363.757 362.109ZM368.198 354H369.151V360.297H369.229L373.604 354H374.542V362H373.573V355.719H373.495L369.136 362H368.198V354ZM376.48 362V354H377.449V357.562H381.715V354H382.684V362H381.715V358.422H377.449V362H376.48ZM385.342 357.359H387.623C388.196 357.359 388.679 357.453 389.072 357.641C389.468 357.828 389.768 358.092 389.971 358.434C390.176 358.775 390.279 359.177 390.279 359.641C390.279 360.104 390.176 360.513 389.971 360.867C389.768 361.221 389.468 361.499 389.072 361.699C388.679 361.9 388.196 362 387.623 362H384.623V354H385.592V361.156H387.623C387.988 361.156 388.296 361.083 388.549 360.937C388.804 360.789 388.997 360.599 389.127 360.367C389.26 360.133 389.326 359.885 389.326 359.625C389.326 359.242 389.179 358.913 388.885 358.637C388.59 358.358 388.17 358.219 387.623 358.219H385.342V357.359ZM392.029 354V362H391.061V354H392.029Z" fill="white"/>
<defs>
<clipPath id="clip0_82_588">
<rect width="32.9102" height="32.9102" fill="white" transform="translate(290.092 84.4873)"/>
</clipPath>
<clipPath id="clip1_82_588">
<rect width="31.4793" height="31.4793" fill="white" transform="translate(70.0947 83.7715)"/>
</clipPath>
</defs>
</svg>
