<svg width="681" height="317" viewBox="0 0 681 317" fill="none" xmlns="http://www.w3.org/2000/svg">
<circle cx="194.5" cy="166.5" r="78.5" stroke="white" stroke-width="4"/>
<path d="M1.20028 305.278C0.674395 306.25 1.03552 307.463 2.00686 307.989L17.8359 316.559C18.8073 317.085 20.021 316.724 20.5469 315.752C21.0728 314.781 20.7117 313.567 19.7403 313.041L5.67004 305.424L13.2876 291.354C13.8135 290.382 13.4524 289.168 12.481 288.643C11.5097 288.117 10.296 288.478 9.77007 289.449L1.20028 305.278ZM146.293 229.025C90.4078 276.335 29.5308 296.238 2.38873 304.313L3.52941 308.147C30.8388 300.022 92.3544 279.928 148.878 232.078L146.293 229.025Z" fill="white"/>
<path d="M283.796 0.350388C277.401 50.0594 255.873 89.6534 245.931 106.905" stroke="white" stroke-width="4"/>
<line y1="-2" x2="245.136" y2="-2" transform="matrix(-1 0 0 1 680.929 309.8)" stroke="white" stroke-width="4"/>
<path d="M436.678 307.811C313.067 310.532 307.602 288.34 254.375 217.764" stroke="white" stroke-width="4"/>
<path d="M236.667 129.333H153.333C152.228 129.333 151.168 129.772 150.387 130.553C149.605 131.335 149.167 132.395 149.167 133.5V150.166C149.174 152.745 149.978 155.259 151.47 157.362C152.962 159.466 155.068 161.057 157.5 161.916V208.5C157.5 209.605 157.939 210.665 158.72 211.446C159.502 212.227 160.561 212.666 161.667 212.666H228.333C229.438 212.666 230.498 212.227 231.279 211.446C232.061 210.665 232.5 209.605 232.5 208.5V161.916C234.931 161.057 237.037 159.466 238.529 157.362C240.021 155.259 240.826 152.745 240.833 150.166V133.5C240.833 132.395 240.394 131.335 239.613 130.553C238.831 129.772 237.772 129.333 236.667 129.333V129.333ZM207.5 137.666H215.833V150.166C215.833 151.271 215.394 152.331 214.613 153.113C213.831 153.894 212.772 154.333 211.667 154.333C210.561 154.333 209.502 153.894 208.72 153.113C207.939 152.331 207.5 151.271 207.5 150.166V137.666ZM190.833 137.666H199.167V150.166C199.167 151.271 198.728 152.331 197.946 153.113C197.165 153.894 196.105 154.333 195 154.333C193.895 154.333 192.835 153.894 192.054 153.113C191.272 152.331 190.833 151.271 190.833 150.166V137.666ZM174.167 137.666H182.5V150.166C182.5 151.271 182.061 152.331 181.279 153.113C180.498 153.894 179.438 154.333 178.333 154.333C177.228 154.333 176.168 153.894 175.387 153.113C174.605 152.331 174.167 151.271 174.167 150.166V137.666ZM161.667 154.333C160.561 154.333 159.502 153.894 158.72 153.113C157.939 152.331 157.5 151.271 157.5 150.166V137.666H165.833V150.166C165.833 151.271 165.394 152.331 164.613 153.113C163.831 153.894 162.772 154.333 161.667 154.333ZM203.333 204.333H186.667V187.666C186.667 185.456 187.544 183.337 189.107 181.774C190.67 180.211 192.79 179.333 195 179.333C197.21 179.333 199.33 180.211 200.892 181.774C202.455 183.337 203.333 185.456 203.333 187.666V204.333ZM224.167 204.333H211.667V187.666C211.667 183.246 209.911 179.007 206.785 175.881C203.659 172.756 199.42 171 195 171C190.58 171 186.34 172.756 183.215 175.881C180.089 179.007 178.333 183.246 178.333 187.666V204.333H165.833V161.916C167.365 161.348 168.778 160.5 170 159.416C172.292 161.466 175.258 162.599 178.333 162.599C181.408 162.599 184.375 161.466 186.667 159.416C188.958 161.466 191.925 162.599 195 162.599C198.075 162.599 201.041 161.466 203.333 159.416C205.625 161.466 208.592 162.599 211.667 162.599C214.741 162.599 217.708 161.466 220 159.416C221.222 160.5 222.635 161.348 224.167 161.916V204.333ZM232.5 150.166C232.5 151.271 232.061 152.331 231.279 153.113C230.498 153.894 229.438 154.333 228.333 154.333C227.228 154.333 226.168 153.894 225.387 153.113C224.605 152.331 224.167 151.271 224.167 150.166V137.666H232.5V150.166Z" fill="white"/>
</svg>
