<svg width="298" height="33" viewBox="0 0 298 33" fill="none" xmlns="http://www.w3.org/2000/svg">
<path d="M0.0213513 32.1648V23.2656H1.66198C2.22542 22.7519 2.75573 22.0269 3.25289 21.0906C3.75833 20.146 4.18506 18.8865 4.53307 17.3121C4.88937 15.7295 5.12552 13.7202 5.24152 11.2841L5.7884 0.545454H20.902V23.2656H23.8353V32.1151H20.902V26H2.95459V32.1648H0.0213513ZM5.34095 23.2656H17.9688V3.27983H8.57249L8.17476 11.2841C8.07533 13.1402 7.90132 14.8222 7.65274 16.3303C7.40416 17.83 7.08515 19.1599 6.69571 20.32C6.30627 21.4717 5.85468 22.4536 5.34095 23.2656ZM28.493 0.545454H31.5257V20.581H31.7743L45.6947 0.545454H48.6777V26H45.5953V6.0142H45.3467L31.476 26H28.493V0.545454ZM75.3285 8.5H72.2461C72.0638 7.6134 71.7448 6.83452 71.2891 6.16335C70.8417 5.49219 70.2948 4.92874 69.6485 4.47301C69.0105 4.009 68.302 3.66098 67.5231 3.42898C66.7442 3.19697 65.9322 3.08097 65.087 3.08097C63.5459 3.08097 62.1497 3.47041 60.8985 4.24929C59.6556 5.02817 58.6654 6.17578 57.928 7.69212C57.1988 9.20845 56.8342 11.0687 56.8342 13.2727C56.8342 15.4768 57.1988 17.337 57.928 18.8533C58.6654 20.3697 59.6556 21.5173 60.8985 22.2962C62.1497 23.075 63.5459 23.4645 65.087 23.4645C65.9322 23.4645 66.7442 23.3485 67.5231 23.1165C68.302 22.8845 69.0105 22.5406 69.6485 22.0849C70.2948 21.6209 70.8417 21.0533 71.2891 20.3821C71.7448 19.7027 72.0638 18.9238 72.2461 18.0455H75.3285C75.0965 19.3464 74.6739 20.5105 74.0608 21.538C73.4476 22.5655 72.6853 23.4396 71.7738 24.1605C70.8624 24.8731 69.8391 25.4158 68.7039 25.7887C67.577 26.1616 66.3714 26.348 65.087 26.348C62.9161 26.348 60.9855 25.8177 59.2951 24.7571C57.6048 23.6965 56.2749 22.1884 55.3054 20.233C54.336 18.2775 53.8513 15.9574 53.8513 13.2727C53.8513 10.5881 54.336 8.26799 55.3054 6.3125C56.2749 4.35701 57.6048 2.84896 59.2951 1.78835C60.9855 0.727745 62.9161 0.197442 65.087 0.197442C66.3714 0.197442 67.577 0.383877 68.7039 0.756747C69.8391 1.12962 70.8624 1.67649 71.7738 2.39737C72.6853 3.10997 73.4476 3.97999 74.0608 5.00746C74.6739 6.02663 75.0965 7.19081 75.3285 8.5ZM78.9174 3.27983V0.545454H98.0083V3.27983H90.004V26H86.9217V3.27983H78.9174ZM102.765 26V0.545454H111.366C113.363 0.545454 114.996 0.905894 116.263 1.62677C117.539 2.33937 118.484 3.30469 119.097 4.52273C119.71 5.74077 120.017 7.09967 120.017 8.59943C120.017 10.0992 119.71 11.4622 119.097 12.6886C118.492 13.9149 117.556 14.8926 116.288 15.6218C115.02 16.3427 113.396 16.7031 111.416 16.7031H105.251V13.9688H111.317C112.684 13.9688 113.782 13.7326 114.61 13.2603C115.439 12.788 116.04 12.15 116.413 11.3462C116.794 10.5342 116.984 9.61861 116.984 8.59943C116.984 7.58026 116.794 6.6688 116.413 5.86506C116.04 5.06132 115.435 4.43158 114.598 3.97585C113.761 3.51184 112.651 3.27983 111.267 3.27983H105.848V26H102.765ZM124.982 0.545454H128.015V20.581H128.264L142.184 0.545454H145.167V26H142.085V6.0142H141.836L127.965 26H124.982V0.545454ZM151.335 26V0.545454H166.697V3.27983H154.417V11.2344H160.88C162.703 11.2344 164.24 11.5327 165.491 12.1293C166.751 12.7259 167.704 13.5669 168.35 14.6523C169.005 15.7378 169.332 17.018 169.332 18.4929C169.332 19.9678 169.005 21.2687 168.35 22.3956C167.704 23.5225 166.751 24.4049 165.491 25.043C164.24 25.681 162.703 26 160.88 26H151.335ZM154.417 23.3153H160.88C162.04 23.3153 163.022 23.0833 163.826 22.6193C164.638 22.147 165.251 21.5421 165.665 20.8047C166.088 20.0589 166.299 19.2718 166.299 18.4432C166.299 17.2251 165.831 16.177 164.895 15.2987C163.959 14.4121 162.62 13.9688 160.88 13.9688H154.417V23.3153ZM176.693 11.2344H183.952C185.774 11.2344 187.312 11.5327 188.563 12.1293C189.822 12.7259 190.775 13.5669 191.421 14.6523C192.076 15.7378 192.403 17.018 192.403 18.4929C192.403 19.9678 192.076 21.2687 191.421 22.3956C190.775 23.5225 189.822 24.4049 188.563 25.043C187.312 25.681 185.774 26 183.952 26H174.406V0.545454H177.489V23.3153H183.952C185.112 23.3153 186.093 23.0833 186.897 22.6193C187.709 22.147 188.322 21.5421 188.737 20.8047C189.159 20.0589 189.371 19.2718 189.371 18.4432C189.371 17.2251 188.902 16.177 187.966 15.2987C187.03 14.4121 185.692 13.9688 183.952 13.9688H176.693V11.2344ZM200.355 0.545454V26H197.272V0.545454H200.355ZM205.91 12.1293V14.8636H198.117V12.1293H205.91ZM227.5 13.2727C227.5 15.9574 227.015 18.2775 226.045 20.233C225.076 22.1884 223.746 23.6965 222.056 24.7571C220.365 25.8177 218.435 26.348 216.264 26.348C214.093 26.348 212.162 25.8177 210.472 24.7571C208.782 23.6965 207.452 22.1884 206.482 20.233C205.513 18.2775 205.028 15.9574 205.028 13.2727C205.028 10.5881 205.513 8.26799 206.482 6.3125C207.452 4.35701 208.782 2.84896 210.472 1.78835C212.162 0.727745 214.093 0.197442 216.264 0.197442C218.435 0.197442 220.365 0.727745 222.056 1.78835C223.746 2.84896 225.076 4.35701 226.045 6.3125C227.015 8.26799 227.5 10.5881 227.5 13.2727ZM224.517 13.2727C224.517 11.0687 224.148 9.20845 223.41 7.69212C222.681 6.17578 221.691 5.02817 220.44 4.24929C219.197 3.47041 217.805 3.08097 216.264 3.08097C214.723 3.08097 213.326 3.47041 212.075 4.24929C210.832 5.02817 209.842 6.17578 209.105 7.69212C208.376 9.20845 208.011 11.0687 208.011 13.2727C208.011 15.4768 208.376 17.337 209.105 18.8533C209.842 20.3697 210.832 21.5173 212.075 22.2962C213.326 23.075 214.723 23.4645 216.264 23.4645C217.805 23.4645 219.197 23.075 220.44 22.2962C221.691 21.5173 222.681 20.3697 223.41 18.8533C224.148 17.337 224.517 15.4768 224.517 13.2727ZM231.29 3.27983V0.545454H250.381V3.27983H242.377V26H239.295V3.27983H231.29ZM275.556 13.2727C275.556 15.9574 275.072 18.2775 274.102 20.233C273.133 22.1884 271.803 23.6965 270.112 24.7571C268.422 25.8177 266.491 26.348 264.32 26.348C262.15 26.348 260.219 25.8177 258.529 24.7571C256.838 23.6965 255.508 22.1884 254.539 20.233C253.569 18.2775 253.085 15.9574 253.085 13.2727C253.085 10.5881 253.569 8.26799 254.539 6.3125C255.508 4.35701 256.838 2.84896 258.529 1.78835C260.219 0.727745 262.15 0.197442 264.32 0.197442C266.491 0.197442 268.422 0.727745 270.112 1.78835C271.803 2.84896 273.133 4.35701 274.102 6.3125C275.072 8.26799 275.556 10.5881 275.556 13.2727ZM272.573 13.2727C272.573 11.0687 272.205 9.20845 271.467 7.69212C270.738 6.17578 269.748 5.02817 268.497 4.24929C267.254 3.47041 265.862 3.08097 264.32 3.08097C262.779 3.08097 261.383 3.47041 260.132 4.24929C258.889 5.02817 257.899 6.17578 257.161 7.69212C256.432 9.20845 256.068 11.0687 256.068 13.2727C256.068 15.4768 256.432 17.337 257.161 18.8533C257.899 20.3697 258.889 21.5173 260.132 22.2962C261.383 23.075 262.779 23.4645 264.32 23.4645C265.862 23.4645 267.254 23.075 268.497 22.2962C269.748 21.5173 270.738 20.3697 271.467 18.8533C272.205 17.337 272.573 15.4768 272.573 13.2727ZM280.739 26V0.545454H289.34C291.337 0.545454 292.969 0.905894 294.237 1.62677C295.513 2.33937 296.458 3.30469 297.071 4.52273C297.684 5.74077 297.991 7.09967 297.991 8.59943C297.991 10.0992 297.684 11.4622 297.071 12.6886C296.466 13.9149 295.53 14.8926 294.262 15.6218C292.994 16.3427 291.37 16.7031 289.39 16.7031H283.225V13.9688H289.29C290.657 13.9688 291.755 13.7326 292.584 13.2603C293.413 12.788 294.013 12.15 294.386 11.3462C294.767 10.5342 294.958 9.61861 294.958 8.59943C294.958 7.58026 294.767 6.6688 294.386 5.86506C294.013 5.06132 293.408 4.43158 292.572 3.97585C291.735 3.51184 290.624 3.27983 289.241 3.27983H283.822V26H280.739Z" fill="white"/>
</svg>
